<?xml version="1.0" encoding="utf-8" standalone="no"?>
<!DOCTYPE svg PUBLIC "-//W3C//DTD SVG 1.1//EN"
  "http://www.w3.org/Graphics/SVG/1.1/DTD/svg11.dtd">
<svg xmlns:xlink="http://www.w3.org/1999/xlink" width="360pt" height="360pt" viewBox="0 0 360 360" xmlns="http://www.w3.org/2000/svg" version="1.1">
 <metadata>
  <rdf:RDF xmlns:dc="http://purl.org/dc/elements/1.1/" xmlns:cc="http://creativecommons.org/ns#" xmlns:rdf="http://www.w3.org/1999/02/22-rdf-syntax-ns#">
   <cc:Work>
    <dc:type rdf:resource="http://purl.org/dc/dcmitype/StillImage"/>
    <dc:date>2024-09-19T17:36:15.072341</dc:date>
    <dc:format>image/svg+xml</dc:format>
    <dc:creator>
     <cc:Agent>
      <dc:title>Matplotlib v3.9.2, https://matplotlib.org/</dc:title>
     </cc:Agent>
    </dc:creator>
   </cc:Work>
  </rdf:RDF>
 </metadata>
 <defs>
  <style type="text/css">*{stroke-linejoin: round; stroke-linecap: butt}</style>
 </defs>
 <g id="figure_1">
  <g id="patch_1">
   <path d="M 0 360 
L 360 360 
L 360 0 
L 0 0 
z
" style="fill: #ffffff"/>
  </g>
  <g id="axes_1">
   <g id="patch_2">
    <path d="M 45 320.4 
L 324 320.4 
L 324 43.2 
L 45 43.2 
z
" style="fill: #ffffff"/>
   </g>
   <g id="PolyCollection_1">
    <path d="M 28.593197 2029.101781 
L 28.593197 695027.741535 
L 30.154623 695027.741535 
L 31.716049 695027.741535 
L 33.277475 695027.741535 
L 34.838901 695027.741535 
L 36.400327 695027.741535 
L 37.961753 695027.741535 
L 39.523179 695027.741535 
L 41.084605 695027.741535 
L 42.646031 695027.741535 
L 44.207457 695027.741535 
L 45.768883 695027.741535 
L 47.330309 695027.741535 
L 48.891735 695027.741535 
L 50.453161 695027.741535 
L 52.014587 695027.741535 
L 53.576012 695027.741535 
L 55.137438 695027.741535 
L 56.698864 695027.741535 
L 58.26029 695027.741535 
L 59.821716 695027.741535 
L 61.383142 695027.741535 
L 62.944568 695027.741535 
L 64.505994 695027.741535 
L 66.06742 695027.741535 
L 67.628846 695027.741535 
L 69.190272 695027.741535 
L 70.751698 695027.741535 
L 72.313124 695027.741535 
L 73.87455 695027.741535 
L 75.435976 695027.741535 
L 76.997402 695027.741535 
L 78.558827 695027.741535 
L 80.120253 695027.741535 
L 81.681679 695027.741535 
L 83.243105 695027.741535 
L 84.804531 695027.741535 
L 86.365957 695027.741535 
L 87.927383 695027.741535 
L 89.488809 695027.741535 
L 91.050235 695027.741535 
L 92.611661 695027.741535 
L 94.173087 695027.741535 
L 95.734513 695027.741535 
L 97.295939 695027.741535 
L 98.857365 695027.741535 
L 100.418791 695027.741535 
L 101.980216 695027.741535 
L 103.541642 695027.741535 
L 105.103068 695027.741535 
L 106.664494 695027.741535 
L 108.22592 695027.741535 
L 109.787346 695027.741535 
L 111.348772 695027.741535 
L 112.910198 695027.741535 
L 114.471624 695027.741535 
L 116.03305 695027.741535 
L 117.594476 695027.741535 
L 119.155902 695027.741535 
L 120.717328 695027.741535 
L 122.278754 695027.741535 
L 123.84018 695027.741535 
L 125.401606 695027.741535 
L 126.963031 695027.741535 
L 128.524457 695027.741535 
L 130.085883 695027.741535 
L 131.647309 695027.741535 
L 133.208735 695027.741535 
L 134.770161 695027.741535 
L 136.331587 695027.741535 
L 137.893013 695027.741535 
L 139.454439 695027.741535 
L 141.015865 695027.741535 
L 142.577291 695027.741535 
L 144.138717 695027.741535 
L 145.700143 695027.741535 
L 147.261569 695027.741535 
L 148.822995 695027.741535 
L 150.384421 695027.741535 
L 151.945846 695027.741535 
L 153.507272 695027.741535 
L 155.068698 695027.741535 
L 156.630124 695027.741535 
L 158.19155 695027.741535 
L 159.752976 695027.741535 
L 161.314402 695027.741535 
L 162.875828 695027.741535 
L 164.437254 695027.741535 
L 165.99868 695027.741535 
L 167.560106 695027.741535 
L 169.121532 695027.741535 
L 170.682958 695027.741535 
L 172.244384 695027.741535 
L 173.80581 695027.741535 
L 175.367235 695027.741535 
L 176.928661 695027.741535 
L 178.490087 695027.741535 
L 180.051513 695027.741535 
L 181.612939 695027.741535 
L 183.174365 695027.741535 
L 184.735791 695027.741535 
L 186.297217 695027.741535 
L 187.858643 695027.741535 
L 189.420069 695027.741535 
L 190.981495 695027.741535 
L 192.542921 695027.741535 
L 194.104347 695027.741535 
L 195.665773 695027.741535 
L 197.227199 695027.741535 
L 198.788625 695027.741535 
L 200.35005 695027.741535 
L 201.911476 695027.741535 
L 203.472902 695027.741535 
L 205.034328 695027.741535 
L 206.595754 695027.741535 
L 208.15718 695027.741535 
L 209.718606 695027.741535 
L 211.280032 695027.741535 
L 212.841458 695027.741535 
L 214.402884 695027.741535 
L 215.96431 695027.741535 
L 217.525736 695027.741535 
L 219.087162 695027.741535 
L 220.648588 695027.741535 
L 222.210014 695027.741535 
L 223.771439 695027.741535 
L 225.332865 695027.741535 
L 226.894291 695027.741535 
L 228.455717 695027.741535 
L 230.017143 695027.741535 
L 231.578569 695027.741535 
L 233.139995 695027.741535 
L 234.701421 695027.741535 
L 236.262847 695027.741535 
L 237.824273 695027.741535 
L 239.385699 695027.741535 
L 240.947125 695027.741535 
L 242.508551 695027.741535 
L 244.069977 695027.741535 
L 245.631403 695027.741535 
L 247.192829 695027.741535 
L 248.754254 695027.741535 
L 250.31568 695027.741535 
L 251.877106 695027.741535 
L 253.438532 695027.741535 
L 254.999958 695027.741535 
L 256.561384 695027.741535 
L 258.12281 695027.741535 
L 259.684236 695027.741535 
L 261.245662 695027.741535 
L 262.807088 695027.741535 
L 264.368514 695027.741535 
L 265.92994 695027.741535 
L 267.491366 695027.741535 
L 269.052792 695027.741535 
L 270.614218 695027.741535 
L 272.175644 695027.741535 
L 273.737069 695027.741535 
L 275.298495 695027.741535 
L 276.859921 695027.741535 
L 278.421347 695027.741535 
L 279.982773 695027.741535 
L 281.544199 695027.741535 
L 283.105625 695027.741535 
L 284.667051 695027.741535 
L 286.228477 695027.741535 
L 287.789903 695027.741535 
L 289.351329 695027.741535 
L 290.912755 695027.741535 
L 292.474181 695027.741535 
L 294.035607 695027.741535 
L 295.597033 695027.741535 
L 297.158458 695027.741535 
L 298.719884 695027.741535 
L 300.28131 695027.741535 
L 301.842736 695027.741535 
L 303.404162 695027.741535 
L 304.965588 695027.741535 
L 306.527014 695027.741535 
L 308.08844 695027.741535 
L 309.649866 695027.741535 
L 311.211292 695027.741535 
L 312.772718 695027.741535 
L 314.334144 695027.741535 
L 315.89557 695027.741535 
L 317.456996 695027.741535 
L 319.018422 695027.741535 
L 320.579848 695027.741535 
L 322.141273 695027.741535 
L 323.702699 695027.741535 
L 325.264125 695027.741535 
L 326.825551 695027.741535 
L 328.386977 695027.741535 
L 329.948403 695027.741535 
L 331.509829 695027.741535 
L 333.071255 695027.741535 
L 334.632681 695027.741535 
L 336.194107 695027.741535 
L 337.755533 695027.741535 
L 339.316959 695027.741535 
L 339.316959 2027.057683 
L 339.316959 2027.057683 
L 337.755533 1761.771867 
L 336.194107 1519.119709 
L 334.632681 1298.790805 
L 333.071255 1100.412822 
L 331.509829 923.537285 
L 329.948403 767.622233 
L 328.386977 632.011443 
L 326.825551 515.910276 
L 325.264125 418.359015 
L 323.702699 338.205906 
L 322.141273 274.08434 
L 320.579848 224.40148 
L 319.018422 187.348463 
L 317.456996 160.943274 
L 315.89557 143.113626 
L 314.334144 131.816514 
L 312.772718 125.175121 
L 311.211292 121.600278 
L 309.649866 119.863322 
L 308.08844 119.103977 
L 306.527014 118.781911 
L 304.965588 118.598171 
L 303.404162 118.414323 
L 301.842736 118.186913 
L 300.28131 117.922355 
L 298.719884 117.649035 
L 297.158458 117.400309 
L 295.597033 117.202988 
L 294.035607 117.069103 
L 292.474181 116.992203 
L 290.912755 116.950951 
L 289.351329 116.920736 
L 287.789903 116.889291 
L 286.228477 116.868135 
L 284.667051 116.891953 
L 283.105625 117.003853 
L 281.544199 117.232767 
L 279.982773 117.574507 
L 278.421347 117.986525 
L 276.859921 118.399272 
L 275.298495 118.738802 
L 273.737069 118.95076 
L 272.175644 119.016661 
L 270.614218 118.957766 
L 269.052792 118.826501 
L 267.491366 118.688453 
L 265.92994 118.599757 
L 264.368514 118.586382 
L 262.807088 118.633056 
L 261.245662 118.68811 
L 259.684236 118.68468 
L 258.12281 118.570072 
L 256.561384 118.32921 
L 254.999958 117.99027 
L 253.438532 117.610657 
L 251.877106 117.252739 
L 250.31568 116.963136 
L 248.754254 116.764681 
L 247.192829 116.660895 
L 245.631403 116.646032 
L 244.069977 116.712878 
L 242.508551 116.854433 
L 240.947125 117.060553 
L 239.385699 117.313433 
L 237.824273 117.58576 
L 236.262847 117.843251 
L 234.701421 118.050707 
L 233.139995 118.179155 
L 231.578569 118.211569 
L 230.017143 118.145806 
L 228.455717 117.994705 
L 226.894291 117.783854 
L 225.332865 117.547591 
L 223.771439 117.32376 
L 222.210014 117.147973 
L 220.648588 117.048412 
L 219.087162 117.042102 
L 217.525736 117.133192 
L 215.96431 117.313457 
L 214.402884 117.565044 
L 212.841458 117.865152 
L 211.280032 118.191362 
L 209.718606 118.525519 
L 208.15718 118.854262 
L 206.595754 119.165993 
L 205.034328 119.446284 
L 203.472902 119.674813 
L 201.911476 119.82618 
L 200.35005 119.87492 
L 198.788625 119.803045 
L 197.227199 119.607333 
L 195.665773 119.303508 
L 194.104347 118.925219 
L 192.542921 118.517288 
L 190.981495 118.124869 
L 189.420069 117.7822 
L 187.858643 117.505537 
L 186.297217 117.293566 
L 184.735791 117.135403 
L 183.174365 117.022378 
L 181.612939 116.957337 
L 180.051513 116.955976 
L 178.490087 117.038824 
L 176.928661 117.217942 
L 175.367235 117.485722 
L 173.80581 117.812174 
L 172.244384 118.151984 
L 170.682958 118.456944 
L 169.121532 118.686824 
L 167.560106 118.814002 
L 165.99868 118.822135 
L 164.437254 118.703064 
L 162.875828 118.456357 
L 161.314402 118.092974 
L 159.752976 117.640906 
L 158.19155 117.148507 
L 156.630124 116.6816 
L 155.068698 116.312836 
L 153.507272 116.105418 
L 151.945846 116.096473 
L 150.384421 116.286426 
L 148.822995 116.638939 
L 147.261569 117.09182 
L 145.700143 117.574949 
L 144.138717 118.028583 
L 142.577291 118.415629 
L 141.015865 118.724432 
L 139.454439 118.96287 
L 137.893013 119.147989 
L 136.331587 119.296309 
L 134.770161 119.418134 
L 133.208735 119.516285 
L 131.647309 119.587859 
L 130.085883 119.627478 
L 128.524457 119.631112 
L 126.963031 119.599568 
L 125.401606 119.540067 
L 123.84018 119.464298 
L 122.278754 119.382657 
L 120.717328 119.296725 
L 119.155902 119.193795 
L 117.594476 119.047342 
L 116.03305 118.825145 
L 114.471624 118.503149 
L 112.910198 118.079451 
L 111.348772 117.581358 
L 109.787346 117.060699 
L 108.22592 116.578014 
L 106.664494 116.182035 
L 105.103068 115.893825 
L 103.541642 115.703277 
L 101.980216 115.580042 
L 100.418791 115.49367 
L 98.857365 115.432346 
L 97.295939 115.409409 
L 95.734513 115.453339 
L 94.173087 115.586874 
L 92.611661 115.808016 
L 91.050235 116.084594 
L 89.488809 116.365133 
L 87.927383 116.59841 
L 86.365957 116.749717 
L 84.804531 116.80607 
L 83.243105 116.77137 
L 81.681679 116.658671 
L 80.120253 116.486288 
L 78.558827 116.279187 
L 76.997402 116.071761 
L 75.435976 115.906647 
L 73.87455 115.827064 
L 72.313124 115.865068 
L 70.751698 116.031778 
L 69.190272 116.31567 
L 67.628846 116.691022 
L 66.06742 117.133108 
L 64.505994 117.633974 
L 62.944568 118.215584 
L 61.383142 118.944749 
L 59.821716 119.961515 
L 58.26029 121.532928 
L 56.698864 124.133969 
L 55.137438 128.539272 
L 53.576012 135.89276 
L 52.014587 147.720312 
L 50.453161 165.869048 
L 48.891735 192.386499 
L 47.330309 229.375244 
L 45.768883 278.861144 
L 44.207457 342.699324 
L 42.646031 422.523787 
L 41.084605 519.733572 
L 39.523179 635.503426 
L 37.961753 770.807627 
L 36.400327 926.448671 
L 34.838901 1103.085764 
L 33.277475 1301.260572 
L 31.716049 1521.419269 
L 30.154623 1763.930812 
L 28.593197 2029.101781 
z
" clip-path="url(#pc4ec2b42dc)" style="fill-opacity: 0.25; stroke: #000000"/>
   </g>
   <g id="matplotlib.axis_1">
    <g id="xtick_1">
     <g id="line2d_1">
      <path d="M 45 320.4 
L 45 43.2 
" clip-path="url(#pc4ec2b42dc)" style="fill: none; stroke: #b0b0b0; stroke-width: 0.8; stroke-linecap: square"/>
     </g>
     <g id="line2d_2">
      <defs>
       <path id="m170d78c3ef" d="M 0 0 
L 0 3.5 
" style="stroke: #000000; stroke-width: 0.8"/>
      </defs>
      <g>
       <use xlink:href="#m170d78c3ef" x="45" y="320.4" style="stroke: #000000; stroke-width: 0.8"/>
      </g>
     </g>
     <g id="text_1">
      <!-- 0 -->
      <g transform="translate(41.81875 334.998438) scale(0.1 -0.1)">
       <defs>
        <path id="DejaVuSans-30" d="M 2034 4250 
Q 1547 4250 1301 3770 
Q 1056 3291 1056 2328 
Q 1056 1369 1301 889 
Q 1547 409 2034 409 
Q 2525 409 2770 889 
Q 3016 1369 3016 2328 
Q 3016 3291 2770 3770 
Q 2525 4250 2034 4250 
z
M 2034 4750 
Q 2819 4750 3233 4129 
Q 3647 3509 3647 2328 
Q 3647 1150 3233 529 
Q 2819 -91 2034 -91 
Q 1250 -91 836 529 
Q 422 1150 422 2328 
Q 422 3509 836 4129 
Q 1250 4750 2034 4750 
z
" transform="scale(0.015625)"/>
       </defs>
       <use xlink:href="#DejaVuSans-30"/>
      </g>
     </g>
    </g>
    <g id="xtick_2">
     <g id="line2d_3">
      <path d="M 99.492188 320.4 
L 99.492188 43.2 
" clip-path="url(#pc4ec2b42dc)" style="fill: none; stroke: #b0b0b0; stroke-width: 0.8; stroke-linecap: square"/>
     </g>
     <g id="line2d_4">
      <g>
       <use xlink:href="#m170d78c3ef" x="99.492188" y="320.4" style="stroke: #000000; stroke-width: 0.8"/>
      </g>
     </g>
     <g id="text_2">
      <!-- 50 -->
      <g transform="translate(93.129688 334.998438) scale(0.1 -0.1)">
       <defs>
        <path id="DejaVuSans-35" d="M 691 4666 
L 3169 4666 
L 3169 4134 
L 1269 4134 
L 1269 2991 
Q 1406 3038 1543 3061 
Q 1681 3084 1819 3084 
Q 2600 3084 3056 2656 
Q 3513 2228 3513 1497 
Q 3513 744 3044 326 
Q 2575 -91 1722 -91 
Q 1428 -91 1123 -41 
Q 819 9 494 109 
L 494 744 
Q 775 591 1075 516 
Q 1375 441 1709 441 
Q 2250 441 2565 725 
Q 2881 1009 2881 1497 
Q 2881 1984 2565 2268 
Q 2250 2553 1709 2553 
Q 1456 2553 1204 2497 
Q 953 2441 691 2322 
L 691 4666 
z
" transform="scale(0.015625)"/>
       </defs>
       <use xlink:href="#DejaVuSans-35"/>
       <use xlink:href="#DejaVuSans-30" x="63.623047"/>
      </g>
     </g>
    </g>
    <g id="xtick_3">
     <g id="line2d_5">
      <path d="M 153.984375 320.4 
L 153.984375 43.2 
" clip-path="url(#pc4ec2b42dc)" style="fill: none; stroke: #b0b0b0; stroke-width: 0.8; stroke-linecap: square"/>
     </g>
     <g id="line2d_6">
      <g>
       <use xlink:href="#m170d78c3ef" x="153.984375" y="320.4" style="stroke: #000000; stroke-width: 0.8"/>
      </g>
     </g>
     <g id="text_3">
      <!-- 100 -->
      <g transform="translate(144.440625 334.998438) scale(0.1 -0.1)">
       <defs>
        <path id="DejaVuSans-31" d="M 794 531 
L 1825 531 
L 1825 4091 
L 703 3866 
L 703 4441 
L 1819 4666 
L 2450 4666 
L 2450 531 
L 3481 531 
L 3481 0 
L 794 0 
L 794 531 
z
" transform="scale(0.015625)"/>
       </defs>
       <use xlink:href="#DejaVuSans-31"/>
       <use xlink:href="#DejaVuSans-30" x="63.623047"/>
       <use xlink:href="#DejaVuSans-30" x="127.246094"/>
      </g>
     </g>
    </g>
    <g id="xtick_4">
     <g id="line2d_7">
      <path d="M 208.476562 320.4 
L 208.476562 43.2 
" clip-path="url(#pc4ec2b42dc)" style="fill: none; stroke: #b0b0b0; stroke-width: 0.8; stroke-linecap: square"/>
     </g>
     <g id="line2d_8">
      <g>
       <use xlink:href="#m170d78c3ef" x="208.476562" y="320.4" style="stroke: #000000; stroke-width: 0.8"/>
      </g>
     </g>
     <g id="text_4">
      <!-- 150 -->
      <g transform="translate(198.932813 334.998438) scale(0.1 -0.1)">
       <use xlink:href="#DejaVuSans-31"/>
       <use xlink:href="#DejaVuSans-35" x="63.623047"/>
       <use xlink:href="#DejaVuSans-30" x="127.246094"/>
      </g>
     </g>
    </g>
    <g id="xtick_5">
     <g id="line2d_9">
      <path d="M 262.96875 320.4 
L 262.96875 43.2 
" clip-path="url(#pc4ec2b42dc)" style="fill: none; stroke: #b0b0b0; stroke-width: 0.8; stroke-linecap: square"/>
     </g>
     <g id="line2d_10">
      <g>
       <use xlink:href="#m170d78c3ef" x="262.96875" y="320.4" style="stroke: #000000; stroke-width: 0.8"/>
      </g>
     </g>
     <g id="text_5">
      <!-- 200 -->
      <g transform="translate(253.425 334.998438) scale(0.1 -0.1)">
       <defs>
        <path id="DejaVuSans-32" d="M 1228 531 
L 3431 531 
L 3431 0 
L 469 0 
L 469 531 
Q 828 903 1448 1529 
Q 2069 2156 2228 2338 
Q 2531 2678 2651 2914 
Q 2772 3150 2772 3378 
Q 2772 3750 2511 3984 
Q 2250 4219 1831 4219 
Q 1534 4219 1204 4116 
Q 875 4013 500 3803 
L 500 4441 
Q 881 4594 1212 4672 
Q 1544 4750 1819 4750 
Q 2544 4750 2975 4387 
Q 3406 4025 3406 3419 
Q 3406 3131 3298 2873 
Q 3191 2616 2906 2266 
Q 2828 2175 2409 1742 
Q 1991 1309 1228 531 
z
" transform="scale(0.015625)"/>
       </defs>
       <use xlink:href="#DejaVuSans-32"/>
       <use xlink:href="#DejaVuSans-30" x="63.623047"/>
       <use xlink:href="#DejaVuSans-30" x="127.246094"/>
      </g>
     </g>
    </g>
    <g id="xtick_6">
     <g id="line2d_11">
      <path d="M 317.460938 320.4 
L 317.460938 43.2 
" clip-path="url(#pc4ec2b42dc)" style="fill: none; stroke: #b0b0b0; stroke-width: 0.8; stroke-linecap: square"/>
     </g>
     <g id="line2d_12">
      <g>
       <use xlink:href="#m170d78c3ef" x="317.460938" y="320.4" style="stroke: #000000; stroke-width: 0.8"/>
      </g>
     </g>
     <g id="text_6">
      <!-- 250 -->
      <g transform="translate(307.917188 334.998438) scale(0.1 -0.1)">
       <use xlink:href="#DejaVuSans-32"/>
       <use xlink:href="#DejaVuSans-35" x="63.623047"/>
       <use xlink:href="#DejaVuSans-30" x="127.246094"/>
      </g>
     </g>
    </g>
    <g id="text_7">
     <!-- Byte Values (0-255) -->
     <g transform="translate(135.128906 348.676562) scale(0.1 -0.1)">
      <defs>
       <path id="DejaVuSans-42" d="M 1259 2228 
L 1259 519 
L 2272 519 
Q 2781 519 3026 730 
Q 3272 941 3272 1375 
Q 3272 1813 3026 2020 
Q 2781 2228 2272 2228 
L 1259 2228 
z
M 1259 4147 
L 1259 2741 
L 2194 2741 
Q 2656 2741 2882 2914 
Q 3109 3088 3109 3444 
Q 3109 3797 2882 3972 
Q 2656 4147 2194 4147 
L 1259 4147 
z
M 628 4666 
L 2241 4666 
Q 2963 4666 3353 4366 
Q 3744 4066 3744 3513 
Q 3744 3084 3544 2831 
Q 3344 2578 2956 2516 
Q 3422 2416 3680 2098 
Q 3938 1781 3938 1306 
Q 3938 681 3513 340 
Q 3088 0 2303 0 
L 628 0 
L 628 4666 
z
" transform="scale(0.015625)"/>
       <path id="DejaVuSans-79" d="M 2059 -325 
Q 1816 -950 1584 -1140 
Q 1353 -1331 966 -1331 
L 506 -1331 
L 506 -850 
L 844 -850 
Q 1081 -850 1212 -737 
Q 1344 -625 1503 -206 
L 1606 56 
L 191 3500 
L 800 3500 
L 1894 763 
L 2988 3500 
L 3597 3500 
L 2059 -325 
z
" transform="scale(0.015625)"/>
       <path id="DejaVuSans-74" d="M 1172 4494 
L 1172 3500 
L 2356 3500 
L 2356 3053 
L 1172 3053 
L 1172 1153 
Q 1172 725 1289 603 
Q 1406 481 1766 481 
L 2356 481 
L 2356 0 
L 1766 0 
Q 1100 0 847 248 
Q 594 497 594 1153 
L 594 3053 
L 172 3053 
L 172 3500 
L 594 3500 
L 594 4494 
L 1172 4494 
z
" transform="scale(0.015625)"/>
       <path id="DejaVuSans-65" d="M 3597 1894 
L 3597 1613 
L 953 1613 
Q 991 1019 1311 708 
Q 1631 397 2203 397 
Q 2534 397 2845 478 
Q 3156 559 3463 722 
L 3463 178 
Q 3153 47 2828 -22 
Q 2503 -91 2169 -91 
Q 1331 -91 842 396 
Q 353 884 353 1716 
Q 353 2575 817 3079 
Q 1281 3584 2069 3584 
Q 2775 3584 3186 3129 
Q 3597 2675 3597 1894 
z
M 3022 2063 
Q 3016 2534 2758 2815 
Q 2500 3097 2075 3097 
Q 1594 3097 1305 2825 
Q 1016 2553 972 2059 
L 3022 2063 
z
" transform="scale(0.015625)"/>
       <path id="DejaVuSans-20" transform="scale(0.015625)"/>
       <path id="DejaVuSans-56" d="M 1831 0 
L 50 4666 
L 709 4666 
L 2188 738 
L 3669 4666 
L 4325 4666 
L 2547 0 
L 1831 0 
z
" transform="scale(0.015625)"/>
       <path id="DejaVuSans-61" d="M 2194 1759 
Q 1497 1759 1228 1600 
Q 959 1441 959 1056 
Q 959 750 1161 570 
Q 1363 391 1709 391 
Q 2188 391 2477 730 
Q 2766 1069 2766 1631 
L 2766 1759 
L 2194 1759 
z
M 3341 1997 
L 3341 0 
L 2766 0 
L 2766 531 
Q 2569 213 2275 61 
Q 1981 -91 1556 -91 
Q 1019 -91 701 211 
Q 384 513 384 1019 
Q 384 1609 779 1909 
Q 1175 2209 1959 2209 
L 2766 2209 
L 2766 2266 
Q 2766 2663 2505 2880 
Q 2244 3097 1772 3097 
Q 1472 3097 1187 3025 
Q 903 2953 641 2809 
L 641 3341 
Q 956 3463 1253 3523 
Q 1550 3584 1831 3584 
Q 2591 3584 2966 3190 
Q 3341 2797 3341 1997 
z
" transform="scale(0.015625)"/>
       <path id="DejaVuSans-6c" d="M 603 4863 
L 1178 4863 
L 1178 0 
L 603 0 
L 603 4863 
z
" transform="scale(0.015625)"/>
       <path id="DejaVuSans-75" d="M 544 1381 
L 544 3500 
L 1119 3500 
L 1119 1403 
Q 1119 906 1312 657 
Q 1506 409 1894 409 
Q 2359 409 2629 706 
Q 2900 1003 2900 1516 
L 2900 3500 
L 3475 3500 
L 3475 0 
L 2900 0 
L 2900 538 
Q 2691 219 2414 64 
Q 2138 -91 1772 -91 
Q 1169 -91 856 284 
Q 544 659 544 1381 
z
M 1991 3584 
L 1991 3584 
z
" transform="scale(0.015625)"/>
       <path id="DejaVuSans-73" d="M 2834 3397 
L 2834 2853 
Q 2591 2978 2328 3040 
Q 2066 3103 1784 3103 
Q 1356 3103 1142 2972 
Q 928 2841 928 2578 
Q 928 2378 1081 2264 
Q 1234 2150 1697 2047 
L 1894 2003 
Q 2506 1872 2764 1633 
Q 3022 1394 3022 966 
Q 3022 478 2636 193 
Q 2250 -91 1575 -91 
Q 1294 -91 989 -36 
Q 684 19 347 128 
L 347 722 
Q 666 556 975 473 
Q 1284 391 1588 391 
Q 1994 391 2212 530 
Q 2431 669 2431 922 
Q 2431 1156 2273 1281 
Q 2116 1406 1581 1522 
L 1381 1569 
Q 847 1681 609 1914 
Q 372 2147 372 2553 
Q 372 3047 722 3315 
Q 1072 3584 1716 3584 
Q 2034 3584 2315 3537 
Q 2597 3491 2834 3397 
z
" transform="scale(0.015625)"/>
       <path id="DejaVuSans-28" d="M 1984 4856 
Q 1566 4138 1362 3434 
Q 1159 2731 1159 2009 
Q 1159 1288 1364 580 
Q 1569 -128 1984 -844 
L 1484 -844 
Q 1016 -109 783 600 
Q 550 1309 550 2009 
Q 550 2706 781 3412 
Q 1013 4119 1484 4856 
L 1984 4856 
z
" transform="scale(0.015625)"/>
       <path id="DejaVuSans-2d" d="M 313 2009 
L 1997 2009 
L 1997 1497 
L 313 1497 
L 313 2009 
z
" transform="scale(0.015625)"/>
       <path id="DejaVuSans-29" d="M 513 4856 
L 1013 4856 
Q 1481 4119 1714 3412 
Q 1947 2706 1947 2009 
Q 1947 1309 1714 600 
Q 1481 -109 1013 -844 
L 513 -844 
Q 928 -128 1133 580 
Q 1338 1288 1338 2009 
Q 1338 2731 1133 3434 
Q 928 4138 513 4856 
z
" transform="scale(0.015625)"/>
      </defs>
      <use xlink:href="#DejaVuSans-42"/>
      <use xlink:href="#DejaVuSans-79" x="68.603516"/>
      <use xlink:href="#DejaVuSans-74" x="127.783203"/>
      <use xlink:href="#DejaVuSans-65" x="166.992188"/>
      <use xlink:href="#DejaVuSans-20" x="228.515625"/>
      <use xlink:href="#DejaVuSans-56" x="260.302734"/>
      <use xlink:href="#DejaVuSans-61" x="320.960938"/>
      <use xlink:href="#DejaVuSans-6c" x="382.240234"/>
      <use xlink:href="#DejaVuSans-75" x="410.023438"/>
      <use xlink:href="#DejaVuSans-65" x="473.402344"/>
      <use xlink:href="#DejaVuSans-73" x="534.925781"/>
      <use xlink:href="#DejaVuSans-20" x="587.025391"/>
      <use xlink:href="#DejaVuSans-28" x="618.8125"/>
      <use xlink:href="#DejaVuSans-30" x="657.826172"/>
      <use xlink:href="#DejaVuSans-2d" x="721.449219"/>
      <use xlink:href="#DejaVuSans-32" x="757.533203"/>
      <use xlink:href="#DejaVuSans-35" x="821.15625"/>
      <use xlink:href="#DejaVuSans-35" x="884.779297"/>
      <use xlink:href="#DejaVuSans-29" x="948.402344"/>
     </g>
    </g>
   </g>
   <g id="matplotlib.axis_2">
    <g id="ytick_1">
     <g id="line2d_13">
      <path d="M 45 320.4 
L 324 320.4 
" clip-path="url(#pc4ec2b42dc)" style="fill: none; stroke: #b0b0b0; stroke-width: 0.8; stroke-linecap: square"/>
     </g>
     <g id="line2d_14">
      <defs>
       <path id="m7790a2aa28" d="M 0 0 
L -2 0 
" style="stroke: #000000; stroke-width: 0.6"/>
      </defs>
      <g>
       <use xlink:href="#m7790a2aa28" x="45" y="320.4" style="stroke: #000000; stroke-width: 0.6"/>
      </g>
     </g>
     <g id="text_8">
      <!-- $\mathdefault{2\times10^{-3}}$ -->
      <g transform="translate(-2.5 324.199219) scale(0.1 -0.1)">
       <defs>
        <path id="DejaVuSans-d7" d="M 4488 3438 
L 3059 2003 
L 4488 575 
L 4116 197 
L 2681 1631 
L 1247 197 
L 878 575 
L 2303 2003 
L 878 3438 
L 1247 3816 
L 2681 2381 
L 4116 3816 
L 4488 3438 
z
" transform="scale(0.015625)"/>
        <path id="DejaVuSans-2212" d="M 678 2272 
L 4684 2272 
L 4684 1741 
L 678 1741 
L 678 2272 
z
" transform="scale(0.015625)"/>
        <path id="DejaVuSans-33" d="M 2597 2516 
Q 3050 2419 3304 2112 
Q 3559 1806 3559 1356 
Q 3559 666 3084 287 
Q 2609 -91 1734 -91 
Q 1441 -91 1130 -33 
Q 819 25 488 141 
L 488 750 
Q 750 597 1062 519 
Q 1375 441 1716 441 
Q 2309 441 2620 675 
Q 2931 909 2931 1356 
Q 2931 1769 2642 2001 
Q 2353 2234 1838 2234 
L 1294 2234 
L 1294 2753 
L 1863 2753 
Q 2328 2753 2575 2939 
Q 2822 3125 2822 3475 
Q 2822 3834 2567 4026 
Q 2313 4219 1838 4219 
Q 1578 4219 1281 4162 
Q 984 4106 628 3988 
L 628 4550 
Q 988 4650 1302 4700 
Q 1616 4750 1894 4750 
Q 2613 4750 3031 4423 
Q 3450 4097 3450 3541 
Q 3450 3153 3228 2886 
Q 3006 2619 2597 2516 
z
" transform="scale(0.015625)"/>
       </defs>
       <use xlink:href="#DejaVuSans-32" transform="translate(0 0.765625)"/>
       <use xlink:href="#DejaVuSans-d7" transform="translate(83.105469 0.765625)"/>
       <use xlink:href="#DejaVuSans-31" transform="translate(186.376953 0.765625)"/>
       <use xlink:href="#DejaVuSans-30" transform="translate(250 0.765625)"/>
       <use xlink:href="#DejaVuSans-2212" transform="translate(314.580078 39.046875) scale(0.7)"/>
       <use xlink:href="#DejaVuSans-33" transform="translate(373.232422 39.046875) scale(0.7)"/>
      </g>
     </g>
    </g>
    <g id="ytick_2">
     <g id="line2d_15">
      <path d="M 45 197.737046 
L 324 197.737046 
" clip-path="url(#pc4ec2b42dc)" style="fill: none; stroke: #b0b0b0; stroke-width: 0.8; stroke-linecap: square"/>
     </g>
     <g id="line2d_16">
      <g>
       <use xlink:href="#m7790a2aa28" x="45" y="197.737046" style="stroke: #000000; stroke-width: 0.6"/>
      </g>
     </g>
     <g id="text_9">
      <!-- $\mathdefault{3\times10^{-3}}$ -->
      <g transform="translate(-2.5 201.536265) scale(0.1 -0.1)">
       <use xlink:href="#DejaVuSans-33" transform="translate(0 0.765625)"/>
       <use xlink:href="#DejaVuSans-d7" transform="translate(83.105469 0.765625)"/>
       <use xlink:href="#DejaVuSans-31" transform="translate(186.376953 0.765625)"/>
       <use xlink:href="#DejaVuSans-30" transform="translate(250 0.765625)"/>
       <use xlink:href="#DejaVuSans-2212" transform="translate(314.580078 39.046875) scale(0.7)"/>
       <use xlink:href="#DejaVuSans-33" transform="translate(373.232422 39.046875) scale(0.7)"/>
      </g>
     </g>
    </g>
    <g id="ytick_3">
     <g id="line2d_17">
      <path d="M 45 110.706295 
L 324 110.706295 
" clip-path="url(#pc4ec2b42dc)" style="fill: none; stroke: #b0b0b0; stroke-width: 0.8; stroke-linecap: square"/>
     </g>
     <g id="line2d_18">
      <g>
       <use xlink:href="#m7790a2aa28" x="45" y="110.706295" style="stroke: #000000; stroke-width: 0.6"/>
      </g>
     </g>
     <g id="text_10">
      <!-- $\mathdefault{4\times10^{-3}}$ -->
      <g transform="translate(-2.5 114.505514) scale(0.1 -0.1)">
       <defs>
        <path id="DejaVuSans-34" d="M 2419 4116 
L 825 1625 
L 2419 1625 
L 2419 4116 
z
M 2253 4666 
L 3047 4666 
L 3047 1625 
L 3713 1625 
L 3713 1100 
L 3047 1100 
L 3047 0 
L 2419 0 
L 2419 1100 
L 313 1100 
L 313 1709 
L 2253 4666 
z
" transform="scale(0.015625)"/>
       </defs>
       <use xlink:href="#DejaVuSans-34" transform="translate(0 0.765625)"/>
       <use xlink:href="#DejaVuSans-d7" transform="translate(83.105469 0.765625)"/>
       <use xlink:href="#DejaVuSans-31" transform="translate(186.376953 0.765625)"/>
       <use xlink:href="#DejaVuSans-30" transform="translate(250 0.765625)"/>
       <use xlink:href="#DejaVuSans-2212" transform="translate(314.580078 39.046875) scale(0.7)"/>
       <use xlink:href="#DejaVuSans-33" transform="translate(373.232422 39.046875) scale(0.7)"/>
      </g>
     </g>
    </g>
    <g id="ytick_4">
     <g id="line2d_19">
      <path d="M 45 43.2 
L 324 43.2 
" clip-path="url(#pc4ec2b42dc)" style="fill: none; stroke: #b0b0b0; stroke-width: 0.8; stroke-linecap: square"/>
     </g>
     <g id="line2d_20">
      <g>
       <use xlink:href="#m7790a2aa28" x="45" y="43.2" style="stroke: #000000; stroke-width: 0.6"/>
      </g>
     </g>
     <g id="text_11">
      <!-- $\mathdefault{5\times10^{-3}}$ -->
      <g transform="translate(-2.5 46.999219) scale(0.1 -0.1)">
       <use xlink:href="#DejaVuSans-35" transform="translate(0 0.765625)"/>
       <use xlink:href="#DejaVuSans-d7" transform="translate(83.105469 0.765625)"/>
       <use xlink:href="#DejaVuSans-31" transform="translate(186.376953 0.765625)"/>
       <use xlink:href="#DejaVuSans-30" transform="translate(250 0.765625)"/>
       <use xlink:href="#DejaVuSans-2212" transform="translate(314.580078 39.046875) scale(0.7)"/>
       <use xlink:href="#DejaVuSans-33" transform="translate(373.232422 39.046875) scale(0.7)"/>
      </g>
     </g>
    </g>
    <g id="text_12">
     <!-- Density -->
     <g transform="translate(-8.579688 200.808594) rotate(-90) scale(0.1 -0.1)">
      <defs>
       <path id="DejaVuSans-44" d="M 1259 4147 
L 1259 519 
L 2022 519 
Q 2988 519 3436 956 
Q 3884 1394 3884 2338 
Q 3884 3275 3436 3711 
Q 2988 4147 2022 4147 
L 1259 4147 
z
M 628 4666 
L 1925 4666 
Q 3281 4666 3915 4102 
Q 4550 3538 4550 2338 
Q 4550 1131 3912 565 
Q 3275 0 1925 0 
L 628 0 
L 628 4666 
z
" transform="scale(0.015625)"/>
       <path id="DejaVuSans-6e" d="M 3513 2113 
L 3513 0 
L 2938 0 
L 2938 2094 
Q 2938 2591 2744 2837 
Q 2550 3084 2163 3084 
Q 1697 3084 1428 2787 
Q 1159 2491 1159 1978 
L 1159 0 
L 581 0 
L 581 3500 
L 1159 3500 
L 1159 2956 
Q 1366 3272 1645 3428 
Q 1925 3584 2291 3584 
Q 2894 3584 3203 3211 
Q 3513 2838 3513 2113 
z
" transform="scale(0.015625)"/>
       <path id="DejaVuSans-69" d="M 603 3500 
L 1178 3500 
L 1178 0 
L 603 0 
L 603 3500 
z
M 603 4863 
L 1178 4863 
L 1178 4134 
L 603 4134 
L 603 4863 
z
" transform="scale(0.015625)"/>
      </defs>
      <use xlink:href="#DejaVuSans-44"/>
      <use xlink:href="#DejaVuSans-65" x="77.001953"/>
      <use xlink:href="#DejaVuSans-6e" x="138.525391"/>
      <use xlink:href="#DejaVuSans-73" x="201.904297"/>
      <use xlink:href="#DejaVuSans-69" x="254.003906"/>
      <use xlink:href="#DejaVuSans-74" x="281.787109"/>
      <use xlink:href="#DejaVuSans-79" x="320.996094"/>
     </g>
    </g>
   </g>
   <g id="patch_3">
    <path d="M 45 320.4 
L 45 43.2 
" style="fill: none; stroke: #000000; stroke-width: 0.8; stroke-linejoin: miter; stroke-linecap: square"/>
   </g>
   <g id="patch_4">
    <path d="M 324 320.4 
L 324 43.2 
" style="fill: none; stroke: #000000; stroke-width: 0.8; stroke-linejoin: miter; stroke-linecap: square"/>
   </g>
   <g id="patch_5">
    <path d="M 45 320.4 
L 324 320.4 
" style="fill: none; stroke: #000000; stroke-width: 0.8; stroke-linejoin: miter; stroke-linecap: square"/>
   </g>
   <g id="patch_6">
    <path d="M 45 43.2 
L 324 43.2 
" style="fill: none; stroke: #000000; stroke-width: 0.8; stroke-linejoin: miter; stroke-linecap: square"/>
   </g>
  </g>
 </g>
 <defs>
  <clipPath id="pc4ec2b42dc">
   <rect x="45" y="43.2" width="279" height="277.2"/>
  </clipPath>
 </defs>
</svg>
