<?xml version="1.0" encoding="utf-8" standalone="no"?>
<!DOCTYPE svg PUBLIC "-//W3C//DTD SVG 1.1//EN"
  "http://www.w3.org/Graphics/SVG/1.1/DTD/svg11.dtd">
<svg xmlns:xlink="http://www.w3.org/1999/xlink" width="360pt" height="360pt" viewBox="0 0 360 360" xmlns="http://www.w3.org/2000/svg" version="1.1">
 <metadata>
  <rdf:RDF xmlns:dc="http://purl.org/dc/elements/1.1/" xmlns:cc="http://creativecommons.org/ns#" xmlns:rdf="http://www.w3.org/1999/02/22-rdf-syntax-ns#">
   <cc:Work>
    <dc:type rdf:resource="http://purl.org/dc/dcmitype/StillImage"/>
    <dc:date>2024-09-18T22:00:49.255969</dc:date>
    <dc:format>image/svg+xml</dc:format>
    <dc:creator>
     <cc:Agent>
      <dc:title>Matplotlib v3.9.2, https://matplotlib.org/</dc:title>
     </cc:Agent>
    </dc:creator>
   </cc:Work>
  </rdf:RDF>
 </metadata>
 <defs>
  <style type="text/css">*{stroke-linejoin: round; stroke-linecap: butt}</style>
 </defs>
 <g id="figure_1">
  <g id="patch_1">
   <path d="M 0 360 
L 360 360 
L 360 0 
L 0 0 
z
" style="fill: #ffffff"/>
  </g>
  <g id="axes_1">
   <g id="patch_2">
    <path d="M 45 320.4 
L 324 320.4 
L 324 43.2 
L 45 43.2 
z
" style="fill: #ffffff"/>
   </g>
   <g id="PolyCollection_1">
    <path d="M 36.280714 2073.660618 
L 36.280714 695027.741535 
L 37.764878 695027.741535 
L 39.249043 695027.741535 
L 40.733207 695027.741535 
L 42.217372 695027.741535 
L 43.701536 695027.741535 
L 45.185701 695027.741535 
L 46.669865 695027.741535 
L 48.15403 695027.741535 
L 49.638194 695027.741535 
L 51.122359 695027.741535 
L 52.606523 695027.741535 
L 54.090688 695027.741535 
L 55.574852 695027.741535 
L 57.059017 695027.741535 
L 58.543181 695027.741535 
L 60.027345 695027.741535 
L 61.51151 695027.741535 
L 62.995674 695027.741535 
L 64.479839 695027.741535 
L 65.964003 695027.741535 
L 67.448168 695027.741535 
L 68.932332 695027.741535 
L 70.416497 695027.741535 
L 71.900661 695027.741535 
L 73.384826 695027.741535 
L 74.86899 695027.741535 
L 76.353155 695027.741535 
L 77.837319 695027.741535 
L 79.321483 695027.741535 
L 80.805648 695027.741535 
L 82.289812 695027.741535 
L 83.773977 695027.741535 
L 85.258141 695027.741535 
L 86.742306 695027.741535 
L 88.22647 695027.741535 
L 89.710635 695027.741535 
L 91.194799 695027.741535 
L 92.678964 695027.741535 
L 94.163128 695027.741535 
L 95.647293 695027.741535 
L 97.131457 695027.741535 
L 98.615621 695027.741535 
L 100.099786 695027.741535 
L 101.58395 695027.741535 
L 103.068115 695027.741535 
L 104.552279 695027.741535 
L 106.036444 695027.741535 
L 107.520608 695027.741535 
L 109.004773 695027.741535 
L 110.488937 695027.741535 
L 111.973102 695027.741535 
L 113.457266 695027.741535 
L 114.941431 695027.741535 
L 116.425595 695027.741535 
L 117.90976 695027.741535 
L 119.393924 695027.741535 
L 120.878088 695027.741535 
L 122.362253 695027.741535 
L 123.846417 695027.741535 
L 125.330582 695027.741535 
L 126.814746 695027.741535 
L 128.298911 695027.741535 
L 129.783075 695027.741535 
L 131.26724 695027.741535 
L 132.751404 695027.741535 
L 134.235569 695027.741535 
L 135.719733 695027.741535 
L 137.203898 695027.741535 
L 138.688062 695027.741535 
L 140.172226 695027.741535 
L 141.656391 695027.741535 
L 143.140555 695027.741535 
L 144.62472 695027.741535 
L 146.108884 695027.741535 
L 147.593049 695027.741535 
L 149.077213 695027.741535 
L 150.561378 695027.741535 
L 152.045542 695027.741535 
L 153.529707 695027.741535 
L 155.013871 695027.741535 
L 156.498036 695027.741535 
L 157.9822 695027.741535 
L 159.466364 695027.741535 
L 160.950529 695027.741535 
L 162.434693 695027.741535 
L 163.918858 695027.741535 
L 165.403022 695027.741535 
L 166.887187 695027.741535 
L 168.371351 695027.741535 
L 169.855516 695027.741535 
L 171.33968 695027.741535 
L 172.823845 695027.741535 
L 174.308009 695027.741535 
L 175.792174 695027.741535 
L 177.276338 695027.741535 
L 178.760503 695027.741535 
L 180.244667 695027.741535 
L 181.728831 695027.741535 
L 183.212996 695027.741535 
L 184.69716 695027.741535 
L 186.181325 695027.741535 
L 187.665489 695027.741535 
L 189.149654 695027.741535 
L 190.633818 695027.741535 
L 192.117983 695027.741535 
L 193.602147 695027.741535 
L 195.086312 695027.741535 
L 196.570476 695027.741535 
L 198.054641 695027.741535 
L 199.538805 695027.741535 
L 201.022969 695027.741535 
L 202.507134 695027.741535 
L 203.991298 695027.741535 
L 205.475463 695027.741535 
L 206.959627 695027.741535 
L 208.443792 695027.741535 
L 209.927956 695027.741535 
L 211.412121 695027.741535 
L 212.896285 695027.741535 
L 214.38045 695027.741535 
L 215.864614 695027.741535 
L 217.348779 695027.741535 
L 218.832943 695027.741535 
L 220.317107 695027.741535 
L 221.801272 695027.741535 
L 223.285436 695027.741535 
L 224.769601 695027.741535 
L 226.253765 695027.741535 
L 227.73793 695027.741535 
L 229.222094 695027.741535 
L 230.706259 695027.741535 
L 232.190423 695027.741535 
L 233.674588 695027.741535 
L 235.158752 695027.741535 
L 236.642917 695027.741535 
L 238.127081 695027.741535 
L 239.611245 695027.741535 
L 241.09541 695027.741535 
L 242.579574 695027.741535 
L 244.063739 695027.741535 
L 245.547903 695027.741535 
L 247.032068 695027.741535 
L 248.516232 695027.741535 
L 250.000397 695027.741535 
L 251.484561 695027.741535 
L 252.968726 695027.741535 
L 254.45289 695027.741535 
L 255.937055 695027.741535 
L 257.421219 695027.741535 
L 258.905384 695027.741535 
L 260.389548 695027.741535 
L 261.873712 695027.741535 
L 263.357877 695027.741535 
L 264.842041 695027.741535 
L 266.326206 695027.741535 
L 267.81037 695027.741535 
L 269.294535 695027.741535 
L 270.778699 695027.741535 
L 272.262864 695027.741535 
L 273.747028 695027.741535 
L 275.231193 695027.741535 
L 276.715357 695027.741535 
L 278.199522 695027.741535 
L 279.683686 695027.741535 
L 281.16785 695027.741535 
L 282.652015 695027.741535 
L 284.136179 695027.741535 
L 285.620344 695027.741535 
L 287.104508 695027.741535 
L 288.588673 695027.741535 
L 290.072837 695027.741535 
L 291.557002 695027.741535 
L 293.041166 695027.741535 
L 294.525331 695027.741535 
L 296.009495 695027.741535 
L 297.49366 695027.741535 
L 298.977824 695027.741535 
L 300.461988 695027.741535 
L 301.946153 695027.741535 
L 303.430317 695027.741535 
L 304.914482 695027.741535 
L 306.398646 695027.741535 
L 307.882811 695027.741535 
L 309.366975 695027.741535 
L 310.85114 695027.741535 
L 312.335304 695027.741535 
L 313.819469 695027.741535 
L 315.303633 695027.741535 
L 316.787798 695027.741535 
L 318.271962 695027.741535 
L 319.756127 695027.741535 
L 321.240291 695027.741535 
L 322.724455 695027.741535 
L 324.20862 695027.741535 
L 325.692784 695027.741535 
L 327.176949 695027.741535 
L 328.661113 695027.741535 
L 330.145278 695027.741535 
L 331.629442 695027.741535 
L 331.629442 1880.889192 
L 331.629442 1880.889192 
L 330.145278 1434.50819 
L 328.661113 1060.66673 
L 327.176949 757.11926 
L 325.692784 520.642956 
L 324.20862 346.606501 
L 322.724455 228.454096 
L 321.240291 157.258759 
L 319.756127 121.705913 
L 318.271962 109.079701 
L 316.787798 107.693327 
L 315.303633 110.007614 
L 313.819469 113.791026 
L 312.335304 119.531454 
L 310.85114 126.585621 
L 309.366975 132.02963 
L 307.882811 132.953733 
L 306.398646 129.406037 
L 304.914482 124.616564 
L 303.430317 122.338283 
L 301.946153 124.188937 
L 300.461988 128.979717 
L 298.977824 134.080041 
L 297.49366 137.927837 
L 296.009495 141.140885 
L 294.525331 144.594338 
L 293.041166 147.518878 
L 291.557002 148.130578 
L 290.072837 144.640842 
L 288.588673 135.850702 
L 287.104508 122.641564 
L 285.620344 108.32424 
L 284.136179 96.537105 
L 282.652015 89.424621 
L 281.16785 87.646871 
L 279.683686 91.249153 
L 278.199522 100.1491 
L 276.715357 113.553304 
L 275.231193 128.602421 
L 273.747028 139.824933 
L 272.262864 141.77584 
L 270.778699 134.43817 
L 269.294535 124.762637 
L 267.81037 120.663376 
L 266.326206 123.885159 
L 264.842041 128.364489 
L 263.357877 126.042676 
L 261.873712 116.020889 
L 260.389548 105.898374 
L 258.905384 103.512724 
L 257.421219 110.024961 
L 255.937055 120.02528 
L 254.45289 127.110605 
L 252.968726 129.69971 
L 251.484561 130.659038 
L 250.000397 132.035373 
L 248.516232 131.923458 
L 247.032068 126.281814 
L 245.547903 113.760238 
L 244.063739 98.656675 
L 242.579574 87.959224 
L 241.09541 85.709277 
L 239.611245 90.682574 
L 238.127081 98.382568 
L 236.642917 104.552305 
L 235.158752 107.637484 
L 233.674588 109.183443 
L 232.190423 112.063376 
L 230.706259 117.884495 
L 229.222094 125.951853 
L 227.73793 134.529105 
L 226.253765 142.578843 
L 224.769601 149.806216 
L 223.285436 155.326564 
L 221.801272 157.145831 
L 220.317107 153.426632 
L 218.832943 144.496262 
L 217.348779 133.602379 
L 215.864614 125.149492 
L 214.38045 121.684704 
L 212.896285 122.289836 
L 211.412121 123.682916 
L 209.927956 122.974154 
L 208.443792 119.564526 
L 206.959627 114.934081 
L 205.475463 111.332669 
L 203.991298 110.238029 
L 202.507134 110.838751 
L 201.022969 109.964085 
L 199.538805 104.767585 
L 198.054641 95.884821 
L 196.570476 87.270592 
L 195.086312 83.353582 
L 193.602147 86.363291 
L 192.117983 94.823449 
L 190.633818 104.515074 
L 189.149654 112.28436 
L 187.665489 118.139064 
L 186.181325 122.738096 
L 184.69716 125.530346 
L 183.212996 126.731212 
L 181.728831 128.41155 
L 180.244667 132.100281 
L 178.760503 136.767356 
L 177.276338 139.996238 
L 175.792174 140.649967 
L 174.308009 139.860007 
L 172.823845 139.532817 
L 171.33968 140.364015 
L 169.855516 140.776345 
L 168.371351 137.053704 
L 166.887187 126.030433 
L 165.403022 109.705426 
L 163.918858 95.68441 
L 162.434693 91.137429 
L 160.950529 96.825103 
L 159.466364 106.526516 
L 157.9822 111.923412 
L 156.498036 109.104643 
L 155.013871 100.779522 
L 153.529707 93.09123 
L 152.045542 91.365548 
L 150.561378 97.516187 
L 149.077213 109.080503 
L 147.593049 120.119377 
L 146.108884 125.067825 
L 144.62472 123.635351 
L 143.140555 120.708714 
L 141.656391 120.847683 
L 140.172226 124.633208 
L 138.688062 130.038957 
L 137.203898 135.102221 
L 135.719733 138.622487 
L 134.235569 140.064158 
L 132.751404 139.769256 
L 131.26724 138.017546 
L 129.783075 133.36399 
L 128.298911 123.585235 
L 126.814746 109.635718 
L 125.330582 96.859351 
L 123.846417 90.260888 
L 122.362253 89.809418 
L 120.878088 91.685227 
L 119.393924 93.483906 
L 117.90976 96.541523 
L 116.425595 103.255371 
L 114.941431 113.9303 
L 113.457266 126.167745 
L 111.973102 136.250754 
L 110.488937 141.248586 
L 109.004773 140.525259 
L 107.520608 135.88194 
L 106.036444 130.503443 
L 104.552279 126.827209 
L 103.068115 124.259668 
L 101.58395 119.858954 
L 100.099786 113.036612 
L 98.615621 108.128165 
L 97.131457 110.069129 
L 95.647293 119.035674 
L 94.163128 130.455017 
L 92.678964 138.981977 
L 91.194799 141.209334 
L 89.710635 135.206256 
L 88.22647 120.096186 
L 86.742306 98.000825 
L 85.258141 75.454283 
L 83.773977 60.757262 
L 82.289812 59.528621 
L 80.805648 72.346485 
L 79.321483 94.487708 
L 77.837319 116.918124 
L 76.353155 130.19776 
L 74.86899 131.105605 
L 73.384826 125.085383 
L 71.900661 120.533469 
L 70.416497 120.821914 
L 68.932332 120.807356 
L 67.448168 112.179646 
L 65.964003 95.147854 
L 64.479839 80.86209 
L 62.995674 80.250614 
L 61.51151 94.671372 
L 60.027345 115.662113 
L 58.543181 131.463824 
L 57.059017 135.755171 
L 55.574852 131.461332 
L 54.090688 126.661396 
L 52.606523 127.786473 
L 51.122359 136.928103 
L 49.638194 155.192305 
L 48.15403 187.625277 
L 46.669865 243.983458 
L 45.185701 335.704704 
L 43.701536 473.141442 
L 42.217372 664.579643 
L 40.733207 916.300727 
L 39.249043 1232.946711 
L 37.764878 1617.90858 
L 36.280714 2073.660618 
z
" clip-path="url(#p8955ed0521)" style="fill-opacity: 0.25; stroke: #000000"/>
   </g>
   <g id="matplotlib.axis_1">
    <g id="xtick_1">
     <g id="line2d_1">
      <path d="M 45 320.4 
L 45 43.2 
" clip-path="url(#p8955ed0521)" style="fill: none; stroke: #b0b0b0; stroke-width: 0.8; stroke-linecap: square"/>
     </g>
     <g id="line2d_2">
      <defs>
       <path id="m43a042d18a" d="M 0 0 
L 0 3.5 
" style="stroke: #000000; stroke-width: 0.8"/>
      </defs>
      <g>
       <use xlink:href="#m43a042d18a" x="45" y="320.4" style="stroke: #000000; stroke-width: 0.8"/>
      </g>
     </g>
     <g id="text_1">
      <!-- 0 -->
      <g transform="translate(41.81875 334.998438) scale(0.1 -0.1)">
       <defs>
        <path id="DejaVuSans-30" d="M 2034 4250 
Q 1547 4250 1301 3770 
Q 1056 3291 1056 2328 
Q 1056 1369 1301 889 
Q 1547 409 2034 409 
Q 2525 409 2770 889 
Q 3016 1369 3016 2328 
Q 3016 3291 2770 3770 
Q 2525 4250 2034 4250 
z
M 2034 4750 
Q 2819 4750 3233 4129 
Q 3647 3509 3647 2328 
Q 3647 1150 3233 529 
Q 2819 -91 2034 -91 
Q 1250 -91 836 529 
Q 422 1150 422 2328 
Q 422 3509 836 4129 
Q 1250 4750 2034 4750 
z
" transform="scale(0.015625)"/>
       </defs>
       <use xlink:href="#DejaVuSans-30"/>
      </g>
     </g>
    </g>
    <g id="xtick_2">
     <g id="line2d_3">
      <path d="M 99.492188 320.4 
L 99.492188 43.2 
" clip-path="url(#p8955ed0521)" style="fill: none; stroke: #b0b0b0; stroke-width: 0.8; stroke-linecap: square"/>
     </g>
     <g id="line2d_4">
      <g>
       <use xlink:href="#m43a042d18a" x="99.492188" y="320.4" style="stroke: #000000; stroke-width: 0.8"/>
      </g>
     </g>
     <g id="text_2">
      <!-- 50 -->
      <g transform="translate(93.129688 334.998438) scale(0.1 -0.1)">
       <defs>
        <path id="DejaVuSans-35" d="M 691 4666 
L 3169 4666 
L 3169 4134 
L 1269 4134 
L 1269 2991 
Q 1406 3038 1543 3061 
Q 1681 3084 1819 3084 
Q 2600 3084 3056 2656 
Q 3513 2228 3513 1497 
Q 3513 744 3044 326 
Q 2575 -91 1722 -91 
Q 1428 -91 1123 -41 
Q 819 9 494 109 
L 494 744 
Q 775 591 1075 516 
Q 1375 441 1709 441 
Q 2250 441 2565 725 
Q 2881 1009 2881 1497 
Q 2881 1984 2565 2268 
Q 2250 2553 1709 2553 
Q 1456 2553 1204 2497 
Q 953 2441 691 2322 
L 691 4666 
z
" transform="scale(0.015625)"/>
       </defs>
       <use xlink:href="#DejaVuSans-35"/>
       <use xlink:href="#DejaVuSans-30" x="63.623047"/>
      </g>
     </g>
    </g>
    <g id="xtick_3">
     <g id="line2d_5">
      <path d="M 153.984375 320.4 
L 153.984375 43.2 
" clip-path="url(#p8955ed0521)" style="fill: none; stroke: #b0b0b0; stroke-width: 0.8; stroke-linecap: square"/>
     </g>
     <g id="line2d_6">
      <g>
       <use xlink:href="#m43a042d18a" x="153.984375" y="320.4" style="stroke: #000000; stroke-width: 0.8"/>
      </g>
     </g>
     <g id="text_3">
      <!-- 100 -->
      <g transform="translate(144.440625 334.998438) scale(0.1 -0.1)">
       <defs>
        <path id="DejaVuSans-31" d="M 794 531 
L 1825 531 
L 1825 4091 
L 703 3866 
L 703 4441 
L 1819 4666 
L 2450 4666 
L 2450 531 
L 3481 531 
L 3481 0 
L 794 0 
L 794 531 
z
" transform="scale(0.015625)"/>
       </defs>
       <use xlink:href="#DejaVuSans-31"/>
       <use xlink:href="#DejaVuSans-30" x="63.623047"/>
       <use xlink:href="#DejaVuSans-30" x="127.246094"/>
      </g>
     </g>
    </g>
    <g id="xtick_4">
     <g id="line2d_7">
      <path d="M 208.476562 320.4 
L 208.476562 43.2 
" clip-path="url(#p8955ed0521)" style="fill: none; stroke: #b0b0b0; stroke-width: 0.8; stroke-linecap: square"/>
     </g>
     <g id="line2d_8">
      <g>
       <use xlink:href="#m43a042d18a" x="208.476562" y="320.4" style="stroke: #000000; stroke-width: 0.8"/>
      </g>
     </g>
     <g id="text_4">
      <!-- 150 -->
      <g transform="translate(198.932813 334.998438) scale(0.1 -0.1)">
       <use xlink:href="#DejaVuSans-31"/>
       <use xlink:href="#DejaVuSans-35" x="63.623047"/>
       <use xlink:href="#DejaVuSans-30" x="127.246094"/>
      </g>
     </g>
    </g>
    <g id="xtick_5">
     <g id="line2d_9">
      <path d="M 262.96875 320.4 
L 262.96875 43.2 
" clip-path="url(#p8955ed0521)" style="fill: none; stroke: #b0b0b0; stroke-width: 0.8; stroke-linecap: square"/>
     </g>
     <g id="line2d_10">
      <g>
       <use xlink:href="#m43a042d18a" x="262.96875" y="320.4" style="stroke: #000000; stroke-width: 0.8"/>
      </g>
     </g>
     <g id="text_5">
      <!-- 200 -->
      <g transform="translate(253.425 334.998438) scale(0.1 -0.1)">
       <defs>
        <path id="DejaVuSans-32" d="M 1228 531 
L 3431 531 
L 3431 0 
L 469 0 
L 469 531 
Q 828 903 1448 1529 
Q 2069 2156 2228 2338 
Q 2531 2678 2651 2914 
Q 2772 3150 2772 3378 
Q 2772 3750 2511 3984 
Q 2250 4219 1831 4219 
Q 1534 4219 1204 4116 
Q 875 4013 500 3803 
L 500 4441 
Q 881 4594 1212 4672 
Q 1544 4750 1819 4750 
Q 2544 4750 2975 4387 
Q 3406 4025 3406 3419 
Q 3406 3131 3298 2873 
Q 3191 2616 2906 2266 
Q 2828 2175 2409 1742 
Q 1991 1309 1228 531 
z
" transform="scale(0.015625)"/>
       </defs>
       <use xlink:href="#DejaVuSans-32"/>
       <use xlink:href="#DejaVuSans-30" x="63.623047"/>
       <use xlink:href="#DejaVuSans-30" x="127.246094"/>
      </g>
     </g>
    </g>
    <g id="xtick_6">
     <g id="line2d_11">
      <path d="M 317.460938 320.4 
L 317.460938 43.2 
" clip-path="url(#p8955ed0521)" style="fill: none; stroke: #b0b0b0; stroke-width: 0.8; stroke-linecap: square"/>
     </g>
     <g id="line2d_12">
      <g>
       <use xlink:href="#m43a042d18a" x="317.460938" y="320.4" style="stroke: #000000; stroke-width: 0.8"/>
      </g>
     </g>
     <g id="text_6">
      <!-- 250 -->
      <g transform="translate(307.917188 334.998438) scale(0.1 -0.1)">
       <use xlink:href="#DejaVuSans-32"/>
       <use xlink:href="#DejaVuSans-35" x="63.623047"/>
       <use xlink:href="#DejaVuSans-30" x="127.246094"/>
      </g>
     </g>
    </g>
    <g id="text_7">
     <!-- Byte Values (0-255) -->
     <g transform="translate(135.128906 348.676562) scale(0.1 -0.1)">
      <defs>
       <path id="DejaVuSans-42" d="M 1259 2228 
L 1259 519 
L 2272 519 
Q 2781 519 3026 730 
Q 3272 941 3272 1375 
Q 3272 1813 3026 2020 
Q 2781 2228 2272 2228 
L 1259 2228 
z
M 1259 4147 
L 1259 2741 
L 2194 2741 
Q 2656 2741 2882 2914 
Q 3109 3088 3109 3444 
Q 3109 3797 2882 3972 
Q 2656 4147 2194 4147 
L 1259 4147 
z
M 628 4666 
L 2241 4666 
Q 2963 4666 3353 4366 
Q 3744 4066 3744 3513 
Q 3744 3084 3544 2831 
Q 3344 2578 2956 2516 
Q 3422 2416 3680 2098 
Q 3938 1781 3938 1306 
Q 3938 681 3513 340 
Q 3088 0 2303 0 
L 628 0 
L 628 4666 
z
" transform="scale(0.015625)"/>
       <path id="DejaVuSans-79" d="M 2059 -325 
Q 1816 -950 1584 -1140 
Q 1353 -1331 966 -1331 
L 506 -1331 
L 506 -850 
L 844 -850 
Q 1081 -850 1212 -737 
Q 1344 -625 1503 -206 
L 1606 56 
L 191 3500 
L 800 3500 
L 1894 763 
L 2988 3500 
L 3597 3500 
L 2059 -325 
z
" transform="scale(0.015625)"/>
       <path id="DejaVuSans-74" d="M 1172 4494 
L 1172 3500 
L 2356 3500 
L 2356 3053 
L 1172 3053 
L 1172 1153 
Q 1172 725 1289 603 
Q 1406 481 1766 481 
L 2356 481 
L 2356 0 
L 1766 0 
Q 1100 0 847 248 
Q 594 497 594 1153 
L 594 3053 
L 172 3053 
L 172 3500 
L 594 3500 
L 594 4494 
L 1172 4494 
z
" transform="scale(0.015625)"/>
       <path id="DejaVuSans-65" d="M 3597 1894 
L 3597 1613 
L 953 1613 
Q 991 1019 1311 708 
Q 1631 397 2203 397 
Q 2534 397 2845 478 
Q 3156 559 3463 722 
L 3463 178 
Q 3153 47 2828 -22 
Q 2503 -91 2169 -91 
Q 1331 -91 842 396 
Q 353 884 353 1716 
Q 353 2575 817 3079 
Q 1281 3584 2069 3584 
Q 2775 3584 3186 3129 
Q 3597 2675 3597 1894 
z
M 3022 2063 
Q 3016 2534 2758 2815 
Q 2500 3097 2075 3097 
Q 1594 3097 1305 2825 
Q 1016 2553 972 2059 
L 3022 2063 
z
" transform="scale(0.015625)"/>
       <path id="DejaVuSans-20" transform="scale(0.015625)"/>
       <path id="DejaVuSans-56" d="M 1831 0 
L 50 4666 
L 709 4666 
L 2188 738 
L 3669 4666 
L 4325 4666 
L 2547 0 
L 1831 0 
z
" transform="scale(0.015625)"/>
       <path id="DejaVuSans-61" d="M 2194 1759 
Q 1497 1759 1228 1600 
Q 959 1441 959 1056 
Q 959 750 1161 570 
Q 1363 391 1709 391 
Q 2188 391 2477 730 
Q 2766 1069 2766 1631 
L 2766 1759 
L 2194 1759 
z
M 3341 1997 
L 3341 0 
L 2766 0 
L 2766 531 
Q 2569 213 2275 61 
Q 1981 -91 1556 -91 
Q 1019 -91 701 211 
Q 384 513 384 1019 
Q 384 1609 779 1909 
Q 1175 2209 1959 2209 
L 2766 2209 
L 2766 2266 
Q 2766 2663 2505 2880 
Q 2244 3097 1772 3097 
Q 1472 3097 1187 3025 
Q 903 2953 641 2809 
L 641 3341 
Q 956 3463 1253 3523 
Q 1550 3584 1831 3584 
Q 2591 3584 2966 3190 
Q 3341 2797 3341 1997 
z
" transform="scale(0.015625)"/>
       <path id="DejaVuSans-6c" d="M 603 4863 
L 1178 4863 
L 1178 0 
L 603 0 
L 603 4863 
z
" transform="scale(0.015625)"/>
       <path id="DejaVuSans-75" d="M 544 1381 
L 544 3500 
L 1119 3500 
L 1119 1403 
Q 1119 906 1312 657 
Q 1506 409 1894 409 
Q 2359 409 2629 706 
Q 2900 1003 2900 1516 
L 2900 3500 
L 3475 3500 
L 3475 0 
L 2900 0 
L 2900 538 
Q 2691 219 2414 64 
Q 2138 -91 1772 -91 
Q 1169 -91 856 284 
Q 544 659 544 1381 
z
M 1991 3584 
L 1991 3584 
z
" transform="scale(0.015625)"/>
       <path id="DejaVuSans-73" d="M 2834 3397 
L 2834 2853 
Q 2591 2978 2328 3040 
Q 2066 3103 1784 3103 
Q 1356 3103 1142 2972 
Q 928 2841 928 2578 
Q 928 2378 1081 2264 
Q 1234 2150 1697 2047 
L 1894 2003 
Q 2506 1872 2764 1633 
Q 3022 1394 3022 966 
Q 3022 478 2636 193 
Q 2250 -91 1575 -91 
Q 1294 -91 989 -36 
Q 684 19 347 128 
L 347 722 
Q 666 556 975 473 
Q 1284 391 1588 391 
Q 1994 391 2212 530 
Q 2431 669 2431 922 
Q 2431 1156 2273 1281 
Q 2116 1406 1581 1522 
L 1381 1569 
Q 847 1681 609 1914 
Q 372 2147 372 2553 
Q 372 3047 722 3315 
Q 1072 3584 1716 3584 
Q 2034 3584 2315 3537 
Q 2597 3491 2834 3397 
z
" transform="scale(0.015625)"/>
       <path id="DejaVuSans-28" d="M 1984 4856 
Q 1566 4138 1362 3434 
Q 1159 2731 1159 2009 
Q 1159 1288 1364 580 
Q 1569 -128 1984 -844 
L 1484 -844 
Q 1016 -109 783 600 
Q 550 1309 550 2009 
Q 550 2706 781 3412 
Q 1013 4119 1484 4856 
L 1984 4856 
z
" transform="scale(0.015625)"/>
       <path id="DejaVuSans-2d" d="M 313 2009 
L 1997 2009 
L 1997 1497 
L 313 1497 
L 313 2009 
z
" transform="scale(0.015625)"/>
       <path id="DejaVuSans-29" d="M 513 4856 
L 1013 4856 
Q 1481 4119 1714 3412 
Q 1947 2706 1947 2009 
Q 1947 1309 1714 600 
Q 1481 -109 1013 -844 
L 513 -844 
Q 928 -128 1133 580 
Q 1338 1288 1338 2009 
Q 1338 2731 1133 3434 
Q 928 4138 513 4856 
z
" transform="scale(0.015625)"/>
      </defs>
      <use xlink:href="#DejaVuSans-42"/>
      <use xlink:href="#DejaVuSans-79" x="68.603516"/>
      <use xlink:href="#DejaVuSans-74" x="127.783203"/>
      <use xlink:href="#DejaVuSans-65" x="166.992188"/>
      <use xlink:href="#DejaVuSans-20" x="228.515625"/>
      <use xlink:href="#DejaVuSans-56" x="260.302734"/>
      <use xlink:href="#DejaVuSans-61" x="320.960938"/>
      <use xlink:href="#DejaVuSans-6c" x="382.240234"/>
      <use xlink:href="#DejaVuSans-75" x="410.023438"/>
      <use xlink:href="#DejaVuSans-65" x="473.402344"/>
      <use xlink:href="#DejaVuSans-73" x="534.925781"/>
      <use xlink:href="#DejaVuSans-20" x="587.025391"/>
      <use xlink:href="#DejaVuSans-28" x="618.8125"/>
      <use xlink:href="#DejaVuSans-30" x="657.826172"/>
      <use xlink:href="#DejaVuSans-2d" x="721.449219"/>
      <use xlink:href="#DejaVuSans-32" x="757.533203"/>
      <use xlink:href="#DejaVuSans-35" x="821.15625"/>
      <use xlink:href="#DejaVuSans-35" x="884.779297"/>
      <use xlink:href="#DejaVuSans-29" x="948.402344"/>
     </g>
    </g>
   </g>
   <g id="matplotlib.axis_2">
    <g id="ytick_1">
     <g id="line2d_13">
      <path d="M 45 320.4 
L 324 320.4 
" clip-path="url(#p8955ed0521)" style="fill: none; stroke: #b0b0b0; stroke-width: 0.8; stroke-linecap: square"/>
     </g>
     <g id="line2d_14">
      <defs>
       <path id="m0c5413c525" d="M 0 0 
L -2 0 
" style="stroke: #000000; stroke-width: 0.6"/>
      </defs>
      <g>
       <use xlink:href="#m0c5413c525" x="45" y="320.4" style="stroke: #000000; stroke-width: 0.6"/>
      </g>
     </g>
     <g id="text_8">
      <!-- $\mathdefault{2\times10^{-3}}$ -->
      <g transform="translate(-2.5 324.199219) scale(0.1 -0.1)">
       <defs>
        <path id="DejaVuSans-d7" d="M 4488 3438 
L 3059 2003 
L 4488 575 
L 4116 197 
L 2681 1631 
L 1247 197 
L 878 575 
L 2303 2003 
L 878 3438 
L 1247 3816 
L 2681 2381 
L 4116 3816 
L 4488 3438 
z
" transform="scale(0.015625)"/>
        <path id="DejaVuSans-2212" d="M 678 2272 
L 4684 2272 
L 4684 1741 
L 678 1741 
L 678 2272 
z
" transform="scale(0.015625)"/>
        <path id="DejaVuSans-33" d="M 2597 2516 
Q 3050 2419 3304 2112 
Q 3559 1806 3559 1356 
Q 3559 666 3084 287 
Q 2609 -91 1734 -91 
Q 1441 -91 1130 -33 
Q 819 25 488 141 
L 488 750 
Q 750 597 1062 519 
Q 1375 441 1716 441 
Q 2309 441 2620 675 
Q 2931 909 2931 1356 
Q 2931 1769 2642 2001 
Q 2353 2234 1838 2234 
L 1294 2234 
L 1294 2753 
L 1863 2753 
Q 2328 2753 2575 2939 
Q 2822 3125 2822 3475 
Q 2822 3834 2567 4026 
Q 2313 4219 1838 4219 
Q 1578 4219 1281 4162 
Q 984 4106 628 3988 
L 628 4550 
Q 988 4650 1302 4700 
Q 1616 4750 1894 4750 
Q 2613 4750 3031 4423 
Q 3450 4097 3450 3541 
Q 3450 3153 3228 2886 
Q 3006 2619 2597 2516 
z
" transform="scale(0.015625)"/>
       </defs>
       <use xlink:href="#DejaVuSans-32" transform="translate(0 0.765625)"/>
       <use xlink:href="#DejaVuSans-d7" transform="translate(83.105469 0.765625)"/>
       <use xlink:href="#DejaVuSans-31" transform="translate(186.376953 0.765625)"/>
       <use xlink:href="#DejaVuSans-30" transform="translate(250 0.765625)"/>
       <use xlink:href="#DejaVuSans-2212" transform="translate(314.580078 39.046875) scale(0.7)"/>
       <use xlink:href="#DejaVuSans-33" transform="translate(373.232422 39.046875) scale(0.7)"/>
      </g>
     </g>
    </g>
    <g id="ytick_2">
     <g id="line2d_15">
      <path d="M 45 197.737046 
L 324 197.737046 
" clip-path="url(#p8955ed0521)" style="fill: none; stroke: #b0b0b0; stroke-width: 0.8; stroke-linecap: square"/>
     </g>
     <g id="line2d_16">
      <g>
       <use xlink:href="#m0c5413c525" x="45" y="197.737046" style="stroke: #000000; stroke-width: 0.6"/>
      </g>
     </g>
     <g id="text_9">
      <!-- $\mathdefault{3\times10^{-3}}$ -->
      <g transform="translate(-2.5 201.536265) scale(0.1 -0.1)">
       <use xlink:href="#DejaVuSans-33" transform="translate(0 0.765625)"/>
       <use xlink:href="#DejaVuSans-d7" transform="translate(83.105469 0.765625)"/>
       <use xlink:href="#DejaVuSans-31" transform="translate(186.376953 0.765625)"/>
       <use xlink:href="#DejaVuSans-30" transform="translate(250 0.765625)"/>
       <use xlink:href="#DejaVuSans-2212" transform="translate(314.580078 39.046875) scale(0.7)"/>
       <use xlink:href="#DejaVuSans-33" transform="translate(373.232422 39.046875) scale(0.7)"/>
      </g>
     </g>
    </g>
    <g id="ytick_3">
     <g id="line2d_17">
      <path d="M 45 110.706295 
L 324 110.706295 
" clip-path="url(#p8955ed0521)" style="fill: none; stroke: #b0b0b0; stroke-width: 0.8; stroke-linecap: square"/>
     </g>
     <g id="line2d_18">
      <g>
       <use xlink:href="#m0c5413c525" x="45" y="110.706295" style="stroke: #000000; stroke-width: 0.6"/>
      </g>
     </g>
     <g id="text_10">
      <!-- $\mathdefault{4\times10^{-3}}$ -->
      <g transform="translate(-2.5 114.505514) scale(0.1 -0.1)">
       <defs>
        <path id="DejaVuSans-34" d="M 2419 4116 
L 825 1625 
L 2419 1625 
L 2419 4116 
z
M 2253 4666 
L 3047 4666 
L 3047 1625 
L 3713 1625 
L 3713 1100 
L 3047 1100 
L 3047 0 
L 2419 0 
L 2419 1100 
L 313 1100 
L 313 1709 
L 2253 4666 
z
" transform="scale(0.015625)"/>
       </defs>
       <use xlink:href="#DejaVuSans-34" transform="translate(0 0.765625)"/>
       <use xlink:href="#DejaVuSans-d7" transform="translate(83.105469 0.765625)"/>
       <use xlink:href="#DejaVuSans-31" transform="translate(186.376953 0.765625)"/>
       <use xlink:href="#DejaVuSans-30" transform="translate(250 0.765625)"/>
       <use xlink:href="#DejaVuSans-2212" transform="translate(314.580078 39.046875) scale(0.7)"/>
       <use xlink:href="#DejaVuSans-33" transform="translate(373.232422 39.046875) scale(0.7)"/>
      </g>
     </g>
    </g>
    <g id="ytick_4">
     <g id="line2d_19">
      <path d="M 45 43.2 
L 324 43.2 
" clip-path="url(#p8955ed0521)" style="fill: none; stroke: #b0b0b0; stroke-width: 0.8; stroke-linecap: square"/>
     </g>
     <g id="line2d_20">
      <g>
       <use xlink:href="#m0c5413c525" x="45" y="43.2" style="stroke: #000000; stroke-width: 0.6"/>
      </g>
     </g>
     <g id="text_11">
      <!-- $\mathdefault{5\times10^{-3}}$ -->
      <g transform="translate(-2.5 46.999219) scale(0.1 -0.1)">
       <use xlink:href="#DejaVuSans-35" transform="translate(0 0.765625)"/>
       <use xlink:href="#DejaVuSans-d7" transform="translate(83.105469 0.765625)"/>
       <use xlink:href="#DejaVuSans-31" transform="translate(186.376953 0.765625)"/>
       <use xlink:href="#DejaVuSans-30" transform="translate(250 0.765625)"/>
       <use xlink:href="#DejaVuSans-2212" transform="translate(314.580078 39.046875) scale(0.7)"/>
       <use xlink:href="#DejaVuSans-33" transform="translate(373.232422 39.046875) scale(0.7)"/>
      </g>
     </g>
    </g>
    <g id="text_12">
     <!-- Density -->
     <g transform="translate(-8.579688 200.808594) rotate(-90) scale(0.1 -0.1)">
      <defs>
       <path id="DejaVuSans-44" d="M 1259 4147 
L 1259 519 
L 2022 519 
Q 2988 519 3436 956 
Q 3884 1394 3884 2338 
Q 3884 3275 3436 3711 
Q 2988 4147 2022 4147 
L 1259 4147 
z
M 628 4666 
L 1925 4666 
Q 3281 4666 3915 4102 
Q 4550 3538 4550 2338 
Q 4550 1131 3912 565 
Q 3275 0 1925 0 
L 628 0 
L 628 4666 
z
" transform="scale(0.015625)"/>
       <path id="DejaVuSans-6e" d="M 3513 2113 
L 3513 0 
L 2938 0 
L 2938 2094 
Q 2938 2591 2744 2837 
Q 2550 3084 2163 3084 
Q 1697 3084 1428 2787 
Q 1159 2491 1159 1978 
L 1159 0 
L 581 0 
L 581 3500 
L 1159 3500 
L 1159 2956 
Q 1366 3272 1645 3428 
Q 1925 3584 2291 3584 
Q 2894 3584 3203 3211 
Q 3513 2838 3513 2113 
z
" transform="scale(0.015625)"/>
       <path id="DejaVuSans-69" d="M 603 3500 
L 1178 3500 
L 1178 0 
L 603 0 
L 603 3500 
z
M 603 4863 
L 1178 4863 
L 1178 4134 
L 603 4134 
L 603 4863 
z
" transform="scale(0.015625)"/>
      </defs>
      <use xlink:href="#DejaVuSans-44"/>
      <use xlink:href="#DejaVuSans-65" x="77.001953"/>
      <use xlink:href="#DejaVuSans-6e" x="138.525391"/>
      <use xlink:href="#DejaVuSans-73" x="201.904297"/>
      <use xlink:href="#DejaVuSans-69" x="254.003906"/>
      <use xlink:href="#DejaVuSans-74" x="281.787109"/>
      <use xlink:href="#DejaVuSans-79" x="320.996094"/>
     </g>
    </g>
   </g>
   <g id="patch_3">
    <path d="M 45 320.4 
L 45 43.2 
" style="fill: none; stroke: #000000; stroke-width: 0.8; stroke-linejoin: miter; stroke-linecap: square"/>
   </g>
   <g id="patch_4">
    <path d="M 324 320.4 
L 324 43.2 
" style="fill: none; stroke: #000000; stroke-width: 0.8; stroke-linejoin: miter; stroke-linecap: square"/>
   </g>
   <g id="patch_5">
    <path d="M 45 320.4 
L 324 320.4 
" style="fill: none; stroke: #000000; stroke-width: 0.8; stroke-linejoin: miter; stroke-linecap: square"/>
   </g>
   <g id="patch_6">
    <path d="M 45 43.2 
L 324 43.2 
" style="fill: none; stroke: #000000; stroke-width: 0.8; stroke-linejoin: miter; stroke-linecap: square"/>
   </g>
  </g>
 </g>
 <defs>
  <clipPath id="p8955ed0521">
   <rect x="45" y="43.2" width="279" height="277.2"/>
  </clipPath>
 </defs>
</svg>
