<?xml version="1.0" encoding="utf-8" standalone="no"?>
<!DOCTYPE svg PUBLIC "-//W3C//DTD SVG 1.1//EN"
  "http://www.w3.org/Graphics/SVG/1.1/DTD/svg11.dtd">
<svg xmlns:xlink="http://www.w3.org/1999/xlink" width="360pt" height="360pt" viewBox="0 0 360 360" xmlns="http://www.w3.org/2000/svg" version="1.1">
 <metadata>
  <rdf:RDF xmlns:dc="http://purl.org/dc/elements/1.1/" xmlns:cc="http://creativecommons.org/ns#" xmlns:rdf="http://www.w3.org/1999/02/22-rdf-syntax-ns#">
   <cc:Work>
    <dc:type rdf:resource="http://purl.org/dc/dcmitype/StillImage"/>
    <dc:date>2024-09-18T22:00:50.156368</dc:date>
    <dc:format>image/svg+xml</dc:format>
    <dc:creator>
     <cc:Agent>
      <dc:title>Matplotlib v3.9.2, https://matplotlib.org/</dc:title>
     </cc:Agent>
    </dc:creator>
   </cc:Work>
  </rdf:RDF>
 </metadata>
 <defs>
  <style type="text/css">*{stroke-linejoin: round; stroke-linecap: butt}</style>
 </defs>
 <g id="figure_1">
  <g id="patch_1">
   <path d="M 0 360 
L 360 360 
L 360 0 
L 0 0 
z
" style="fill: #ffffff"/>
  </g>
  <g id="axes_1">
   <g id="patch_2">
    <path d="M 45 320.4 
L 324 320.4 
L 324 43.2 
L 45 43.2 
z
" style="fill: #ffffff"/>
   </g>
   <g id="PolyCollection_1">
    <path d="M 29.836535 2016.038051 
L 29.836535 695027.741535 
L 31.385465 695027.741535 
L 32.934395 695027.741535 
L 34.483325 695027.741535 
L 36.032255 695027.741535 
L 37.581185 695027.741535 
L 39.130116 695027.741535 
L 40.679046 695027.741535 
L 42.227976 695027.741535 
L 43.776906 695027.741535 
L 45.325836 695027.741535 
L 46.874766 695027.741535 
L 48.423696 695027.741535 
L 49.972626 695027.741535 
L 51.521556 695027.741535 
L 53.070486 695027.741535 
L 54.619416 695027.741535 
L 56.168346 695027.741535 
L 57.717276 695027.741535 
L 59.266207 695027.741535 
L 60.815137 695027.741535 
L 62.364067 695027.741535 
L 63.912997 695027.741535 
L 65.461927 695027.741535 
L 67.010857 695027.741535 
L 68.559787 695027.741535 
L 70.108717 695027.741535 
L 71.657647 695027.741535 
L 73.206577 695027.741535 
L 74.755507 695027.741535 
L 76.304437 695027.741535 
L 77.853368 695027.741535 
L 79.402298 695027.741535 
L 80.951228 695027.741535 
L 82.500158 695027.741535 
L 84.049088 695027.741535 
L 85.598018 695027.741535 
L 87.146948 695027.741535 
L 88.695878 695027.741535 
L 90.244808 695027.741535 
L 91.793738 695027.741535 
L 93.342668 695027.741535 
L 94.891598 695027.741535 
L 96.440529 695027.741535 
L 97.989459 695027.741535 
L 99.538389 695027.741535 
L 101.087319 695027.741535 
L 102.636249 695027.741535 
L 104.185179 695027.741535 
L 105.734109 695027.741535 
L 107.283039 695027.741535 
L 108.831969 695027.741535 
L 110.380899 695027.741535 
L 111.929829 695027.741535 
L 113.478759 695027.741535 
L 115.02769 695027.741535 
L 116.57662 695027.741535 
L 118.12555 695027.741535 
L 119.67448 695027.741535 
L 121.22341 695027.741535 
L 122.77234 695027.741535 
L 124.32127 695027.741535 
L 125.8702 695027.741535 
L 127.41913 695027.741535 
L 128.96806 695027.741535 
L 130.51699 695027.741535 
L 132.06592 695027.741535 
L 133.61485 695027.741535 
L 135.163781 695027.741535 
L 136.712711 695027.741535 
L 138.261641 695027.741535 
L 139.810571 695027.741535 
L 141.359501 695027.741535 
L 142.908431 695027.741535 
L 144.457361 695027.741535 
L 146.006291 695027.741535 
L 147.555221 695027.741535 
L 149.104151 695027.741535 
L 150.653081 695027.741535 
L 152.202011 695027.741535 
L 153.750942 695027.741535 
L 155.299872 695027.741535 
L 156.848802 695027.741535 
L 158.397732 695027.741535 
L 159.946662 695027.741535 
L 161.495592 695027.741535 
L 163.044522 695027.741535 
L 164.593452 695027.741535 
L 166.142382 695027.741535 
L 167.691312 695027.741535 
L 169.240242 695027.741535 
L 170.789172 695027.741535 
L 172.338103 695027.741535 
L 173.887033 695027.741535 
L 175.435963 695027.741535 
L 176.984893 695027.741535 
L 178.533823 695027.741535 
L 180.082753 695027.741535 
L 181.631683 695027.741535 
L 183.180613 695027.741535 
L 184.729543 695027.741535 
L 186.278473 695027.741535 
L 187.827403 695027.741535 
L 189.376333 695027.741535 
L 190.925263 695027.741535 
L 192.474194 695027.741535 
L 194.023124 695027.741535 
L 195.572054 695027.741535 
L 197.120984 695027.741535 
L 198.669914 695027.741535 
L 200.218844 695027.741535 
L 201.767774 695027.741535 
L 203.316704 695027.741535 
L 204.865634 695027.741535 
L 206.414564 695027.741535 
L 207.963494 695027.741535 
L 209.512424 695027.741535 
L 211.061355 695027.741535 
L 212.610285 695027.741535 
L 214.159215 695027.741535 
L 215.708145 695027.741535 
L 217.257075 695027.741535 
L 218.806005 695027.741535 
L 220.354935 695027.741535 
L 221.903865 695027.741535 
L 223.452795 695027.741535 
L 225.001725 695027.741535 
L 226.550655 695027.741535 
L 228.099585 695027.741535 
L 229.648516 695027.741535 
L 231.197446 695027.741535 
L 232.746376 695027.741535 
L 234.295306 695027.741535 
L 235.844236 695027.741535 
L 237.393166 695027.741535 
L 238.942096 695027.741535 
L 240.491026 695027.741535 
L 242.039956 695027.741535 
L 243.588886 695027.741535 
L 245.137816 695027.741535 
L 246.686746 695027.741535 
L 248.235677 695027.741535 
L 249.784607 695027.741535 
L 251.333537 695027.741535 
L 252.882467 695027.741535 
L 254.431397 695027.741535 
L 255.980327 695027.741535 
L 257.529257 695027.741535 
L 259.078187 695027.741535 
L 260.627117 695027.741535 
L 262.176047 695027.741535 
L 263.724977 695027.741535 
L 265.273907 695027.741535 
L 266.822837 695027.741535 
L 268.371768 695027.741535 
L 269.920698 695027.741535 
L 271.469628 695027.741535 
L 273.018558 695027.741535 
L 274.567488 695027.741535 
L 276.116418 695027.741535 
L 277.665348 695027.741535 
L 279.214278 695027.741535 
L 280.763208 695027.741535 
L 282.312138 695027.741535 
L 283.861068 695027.741535 
L 285.409998 695027.741535 
L 286.958929 695027.741535 
L 288.507859 695027.741535 
L 290.056789 695027.741535 
L 291.605719 695027.741535 
L 293.154649 695027.741535 
L 294.703579 695027.741535 
L 296.252509 695027.741535 
L 297.801439 695027.741535 
L 299.350369 695027.741535 
L 300.899299 695027.741535 
L 302.448229 695027.741535 
L 303.997159 695027.741535 
L 305.54609 695027.741535 
L 307.09502 695027.741535 
L 308.64395 695027.741535 
L 310.19288 695027.741535 
L 311.74181 695027.741535 
L 313.29074 695027.741535 
L 314.83967 695027.741535 
L 316.3886 695027.741535 
L 317.93753 695027.741535 
L 319.48646 695027.741535 
L 321.03539 695027.741535 
L 322.58432 695027.741535 
L 324.13325 695027.741535 
L 325.682181 695027.741535 
L 327.231111 695027.741535 
L 328.780041 695027.741535 
L 330.328971 695027.741535 
L 331.877901 695027.741535 
L 333.426831 695027.741535 
L 334.975761 695027.741535 
L 336.524691 695027.741535 
L 338.073621 695027.741535 
L 338.073621 2019.682202 
L 338.073621 2019.682202 
L 336.524691 1736.727293 
L 334.975761 1479.848678 
L 333.426831 1248.652823 
L 331.877901 1042.659321 
L 330.328971 861.278735 
L 328.780041 703.785206 
L 327.231111 569.283563 
L 325.682181 456.671679 
L 324.13325 364.600876 
L 322.58432 291.440552 
L 321.03539 235.257998 
L 319.48646 193.829361 
L 317.93753 164.699768 
L 316.3886 145.304521 
L 314.83967 133.144793 
L 313.29074 125.983695 
L 311.74181 122.007294 
L 310.19288 119.899503 
L 308.64395 118.813997 
L 307.09502 118.269757 
L 305.54609 118.021108 
L 303.997159 117.947469 
L 302.448229 117.983976 
L 300.899299 118.089961 
L 299.350369 118.23919 
L 297.801439 118.415377 
L 296.252509 118.603969 
L 294.703579 118.780602 
L 293.154649 118.903002 
L 291.605719 118.913988 
L 290.056789 118.758231 
L 288.507859 118.406715 
L 286.958929 117.875906 
L 285.409998 117.22933 
L 283.861068 116.558792 
L 282.312138 115.954766 
L 280.763208 115.481627 
L 279.214278 115.169006 
L 277.665348 115.01965 
L 276.116418 115.024775 
L 274.567488 115.175939 
L 273.018558 115.467552 
L 271.469628 115.891103 
L 269.920698 116.426067 
L 268.371768 117.032286 
L 266.822837 117.647098 
L 265.273907 118.189958 
L 263.724977 118.57667 
L 262.176047 118.742011 
L 260.627117 118.663316 
L 259.078187 118.373148 
L 257.529257 117.951891 
L 255.980327 117.501248 
L 254.431397 117.110588 
L 252.882467 116.832011 
L 251.333537 116.674404 
L 249.784607 116.616201 
L 248.235677 116.627671 
L 246.686746 116.690462 
L 245.137816 116.805126 
L 243.588886 116.98424 
L 242.039956 117.236369 
L 240.491026 117.550989 
L 238.942096 117.893578 
L 237.393166 118.213605 
L 235.844236 118.460109 
L 234.295306 118.595802 
L 232.746376 118.603579 
L 231.197446 118.485957 
L 229.648516 118.262152 
L 228.099585 117.966144 
L 226.550655 117.644596 
L 225.001725 117.351333 
L 223.452795 117.137391 
L 221.903865 117.039787 
L 220.354935 117.073419 
L 218.806005 117.228081 
L 217.257075 117.469628 
L 215.708145 117.744013 
L 214.159215 117.984524 
L 212.610285 118.122847 
L 211.061355 118.10253 
L 209.512424 117.891517 
L 207.963494 117.490817 
L 206.414564 116.938053 
L 204.865634 116.304846 
L 203.316704 115.686033 
L 201.767774 115.179644 
L 200.218844 114.861306 
L 198.669914 114.762278 
L 197.120984 114.861462 
L 195.572054 115.096252 
L 194.023124 115.387748 
L 192.474194 115.668704 
L 190.925263 115.902082 
L 189.376333 116.084266 
L 187.827403 116.234959 
L 186.278473 116.380748 
L 184.729543 116.539828 
L 183.180613 116.713571 
L 181.631683 116.887808 
L 180.082753 117.042579 
L 178.533823 117.164365 
L 176.984893 117.253083 
L 175.435963 117.320423 
L 173.887033 117.383434 
L 172.338103 117.460429 
L 170.789172 117.571692 
L 169.240242 117.740303 
L 167.691312 117.987077 
L 166.142382 118.320136 
L 164.593452 118.726561 
L 163.044522 119.17319 
L 161.495592 119.616176 
L 159.946662 120.012551 
L 158.397732 120.327857 
L 156.848802 120.539934 
L 155.299872 120.642654 
L 153.750942 120.650526 
L 152.202011 120.599311 
L 150.653081 120.536564 
L 149.104151 120.502603 
L 147.555221 120.51182 
L 146.006291 120.54741 
L 144.457361 120.57509 
L 142.908431 120.568121 
L 141.359501 120.527292 
L 139.810571 120.482433 
L 138.261641 120.474172 
L 136.712711 120.527015 
L 135.163781 120.629585 
L 133.61485 120.73335 
L 132.06592 120.770874 
L 130.51699 120.684009 
L 128.96806 120.447035 
L 127.41913 120.073113 
L 125.8702 119.603283 
L 124.32127 119.088071 
L 122.77234 118.574404 
L 121.22341 118.103016 
L 119.67448 117.710964 
L 118.12555 117.42979 
L 116.57662 117.275718 
L 115.02769 117.238038 
L 113.478759 117.276011 
L 111.929829 117.329456 
L 110.380899 117.338353 
L 108.831969 117.260968 
L 107.283039 117.082472 
L 105.734109 116.813504 
L 104.185179 116.483853 
L 102.636249 116.136383 
L 101.087319 115.822225 
L 99.538389 115.594693 
L 97.989459 115.499607 
L 96.440529 115.563048 
L 94.891598 115.781135 
L 93.342668 116.117049 
L 91.793738 116.507795 
L 90.244808 116.878828 
L 88.695878 117.161531 
L 87.146948 117.308118 
L 85.598018 117.300561 
L 84.049088 117.15281 
L 82.500158 116.907351 
L 80.951228 116.627493 
L 79.402298 116.386351 
L 77.853368 116.253355 
L 76.304437 116.280009 
L 74.755507 116.487984 
L 73.206577 116.863282 
L 71.657647 117.359111 
L 70.108717 117.907351 
L 68.559787 118.435341 
L 67.010857 118.882955 
L 65.461927 119.215619 
L 63.912997 119.431839 
L 62.364067 119.567936 
L 60.815137 119.707324 
L 59.266207 120.006697 
L 57.717276 120.753855 
L 56.168346 122.46517 
L 54.619416 126.0094 
L 53.070486 132.715806 
L 51.521556 144.410741 
L 49.972626 163.34801 
L 48.423696 192.046328 
L 46.874766 233.087828 
L 45.325836 288.937926 
L 43.776906 361.823076 
L 42.227976 453.672386 
L 40.679046 566.109439 
L 39.130116 700.474908 
L 37.581185 857.863472 
L 36.032255 1039.164118 
L 34.483325 1245.097904 
L 32.934395 1476.250682 
L 31.385465 1733.100213 
L 29.836535 2016.038051 
z
" clip-path="url(#p1be069a2da)" style="fill-opacity: 0.25; stroke: #000000"/>
   </g>
   <g id="matplotlib.axis_1">
    <g id="xtick_1">
     <g id="line2d_1">
      <path d="M 45 320.4 
L 45 43.2 
" clip-path="url(#p1be069a2da)" style="fill: none; stroke: #b0b0b0; stroke-width: 0.8; stroke-linecap: square"/>
     </g>
     <g id="line2d_2">
      <defs>
       <path id="m7c588e215d" d="M 0 0 
L 0 3.5 
" style="stroke: #000000; stroke-width: 0.8"/>
      </defs>
      <g>
       <use xlink:href="#m7c588e215d" x="45" y="320.4" style="stroke: #000000; stroke-width: 0.8"/>
      </g>
     </g>
     <g id="text_1">
      <!-- 0 -->
      <g transform="translate(41.81875 334.998438) scale(0.1 -0.1)">
       <defs>
        <path id="DejaVuSans-30" d="M 2034 4250 
Q 1547 4250 1301 3770 
Q 1056 3291 1056 2328 
Q 1056 1369 1301 889 
Q 1547 409 2034 409 
Q 2525 409 2770 889 
Q 3016 1369 3016 2328 
Q 3016 3291 2770 3770 
Q 2525 4250 2034 4250 
z
M 2034 4750 
Q 2819 4750 3233 4129 
Q 3647 3509 3647 2328 
Q 3647 1150 3233 529 
Q 2819 -91 2034 -91 
Q 1250 -91 836 529 
Q 422 1150 422 2328 
Q 422 3509 836 4129 
Q 1250 4750 2034 4750 
z
" transform="scale(0.015625)"/>
       </defs>
       <use xlink:href="#DejaVuSans-30"/>
      </g>
     </g>
    </g>
    <g id="xtick_2">
     <g id="line2d_3">
      <path d="M 99.492188 320.4 
L 99.492188 43.2 
" clip-path="url(#p1be069a2da)" style="fill: none; stroke: #b0b0b0; stroke-width: 0.8; stroke-linecap: square"/>
     </g>
     <g id="line2d_4">
      <g>
       <use xlink:href="#m7c588e215d" x="99.492188" y="320.4" style="stroke: #000000; stroke-width: 0.8"/>
      </g>
     </g>
     <g id="text_2">
      <!-- 50 -->
      <g transform="translate(93.129688 334.998438) scale(0.1 -0.1)">
       <defs>
        <path id="DejaVuSans-35" d="M 691 4666 
L 3169 4666 
L 3169 4134 
L 1269 4134 
L 1269 2991 
Q 1406 3038 1543 3061 
Q 1681 3084 1819 3084 
Q 2600 3084 3056 2656 
Q 3513 2228 3513 1497 
Q 3513 744 3044 326 
Q 2575 -91 1722 -91 
Q 1428 -91 1123 -41 
Q 819 9 494 109 
L 494 744 
Q 775 591 1075 516 
Q 1375 441 1709 441 
Q 2250 441 2565 725 
Q 2881 1009 2881 1497 
Q 2881 1984 2565 2268 
Q 2250 2553 1709 2553 
Q 1456 2553 1204 2497 
Q 953 2441 691 2322 
L 691 4666 
z
" transform="scale(0.015625)"/>
       </defs>
       <use xlink:href="#DejaVuSans-35"/>
       <use xlink:href="#DejaVuSans-30" x="63.623047"/>
      </g>
     </g>
    </g>
    <g id="xtick_3">
     <g id="line2d_5">
      <path d="M 153.984375 320.4 
L 153.984375 43.2 
" clip-path="url(#p1be069a2da)" style="fill: none; stroke: #b0b0b0; stroke-width: 0.8; stroke-linecap: square"/>
     </g>
     <g id="line2d_6">
      <g>
       <use xlink:href="#m7c588e215d" x="153.984375" y="320.4" style="stroke: #000000; stroke-width: 0.8"/>
      </g>
     </g>
     <g id="text_3">
      <!-- 100 -->
      <g transform="translate(144.440625 334.998438) scale(0.1 -0.1)">
       <defs>
        <path id="DejaVuSans-31" d="M 794 531 
L 1825 531 
L 1825 4091 
L 703 3866 
L 703 4441 
L 1819 4666 
L 2450 4666 
L 2450 531 
L 3481 531 
L 3481 0 
L 794 0 
L 794 531 
z
" transform="scale(0.015625)"/>
       </defs>
       <use xlink:href="#DejaVuSans-31"/>
       <use xlink:href="#DejaVuSans-30" x="63.623047"/>
       <use xlink:href="#DejaVuSans-30" x="127.246094"/>
      </g>
     </g>
    </g>
    <g id="xtick_4">
     <g id="line2d_7">
      <path d="M 208.476562 320.4 
L 208.476562 43.2 
" clip-path="url(#p1be069a2da)" style="fill: none; stroke: #b0b0b0; stroke-width: 0.8; stroke-linecap: square"/>
     </g>
     <g id="line2d_8">
      <g>
       <use xlink:href="#m7c588e215d" x="208.476562" y="320.4" style="stroke: #000000; stroke-width: 0.8"/>
      </g>
     </g>
     <g id="text_4">
      <!-- 150 -->
      <g transform="translate(198.932813 334.998438) scale(0.1 -0.1)">
       <use xlink:href="#DejaVuSans-31"/>
       <use xlink:href="#DejaVuSans-35" x="63.623047"/>
       <use xlink:href="#DejaVuSans-30" x="127.246094"/>
      </g>
     </g>
    </g>
    <g id="xtick_5">
     <g id="line2d_9">
      <path d="M 262.96875 320.4 
L 262.96875 43.2 
" clip-path="url(#p1be069a2da)" style="fill: none; stroke: #b0b0b0; stroke-width: 0.8; stroke-linecap: square"/>
     </g>
     <g id="line2d_10">
      <g>
       <use xlink:href="#m7c588e215d" x="262.96875" y="320.4" style="stroke: #000000; stroke-width: 0.8"/>
      </g>
     </g>
     <g id="text_5">
      <!-- 200 -->
      <g transform="translate(253.425 334.998438) scale(0.1 -0.1)">
       <defs>
        <path id="DejaVuSans-32" d="M 1228 531 
L 3431 531 
L 3431 0 
L 469 0 
L 469 531 
Q 828 903 1448 1529 
Q 2069 2156 2228 2338 
Q 2531 2678 2651 2914 
Q 2772 3150 2772 3378 
Q 2772 3750 2511 3984 
Q 2250 4219 1831 4219 
Q 1534 4219 1204 4116 
Q 875 4013 500 3803 
L 500 4441 
Q 881 4594 1212 4672 
Q 1544 4750 1819 4750 
Q 2544 4750 2975 4387 
Q 3406 4025 3406 3419 
Q 3406 3131 3298 2873 
Q 3191 2616 2906 2266 
Q 2828 2175 2409 1742 
Q 1991 1309 1228 531 
z
" transform="scale(0.015625)"/>
       </defs>
       <use xlink:href="#DejaVuSans-32"/>
       <use xlink:href="#DejaVuSans-30" x="63.623047"/>
       <use xlink:href="#DejaVuSans-30" x="127.246094"/>
      </g>
     </g>
    </g>
    <g id="xtick_6">
     <g id="line2d_11">
      <path d="M 317.460938 320.4 
L 317.460938 43.2 
" clip-path="url(#p1be069a2da)" style="fill: none; stroke: #b0b0b0; stroke-width: 0.8; stroke-linecap: square"/>
     </g>
     <g id="line2d_12">
      <g>
       <use xlink:href="#m7c588e215d" x="317.460938" y="320.4" style="stroke: #000000; stroke-width: 0.8"/>
      </g>
     </g>
     <g id="text_6">
      <!-- 250 -->
      <g transform="translate(307.917188 334.998438) scale(0.1 -0.1)">
       <use xlink:href="#DejaVuSans-32"/>
       <use xlink:href="#DejaVuSans-35" x="63.623047"/>
       <use xlink:href="#DejaVuSans-30" x="127.246094"/>
      </g>
     </g>
    </g>
    <g id="text_7">
     <!-- Byte Values (0-255) -->
     <g transform="translate(135.128906 348.676562) scale(0.1 -0.1)">
      <defs>
       <path id="DejaVuSans-42" d="M 1259 2228 
L 1259 519 
L 2272 519 
Q 2781 519 3026 730 
Q 3272 941 3272 1375 
Q 3272 1813 3026 2020 
Q 2781 2228 2272 2228 
L 1259 2228 
z
M 1259 4147 
L 1259 2741 
L 2194 2741 
Q 2656 2741 2882 2914 
Q 3109 3088 3109 3444 
Q 3109 3797 2882 3972 
Q 2656 4147 2194 4147 
L 1259 4147 
z
M 628 4666 
L 2241 4666 
Q 2963 4666 3353 4366 
Q 3744 4066 3744 3513 
Q 3744 3084 3544 2831 
Q 3344 2578 2956 2516 
Q 3422 2416 3680 2098 
Q 3938 1781 3938 1306 
Q 3938 681 3513 340 
Q 3088 0 2303 0 
L 628 0 
L 628 4666 
z
" transform="scale(0.015625)"/>
       <path id="DejaVuSans-79" d="M 2059 -325 
Q 1816 -950 1584 -1140 
Q 1353 -1331 966 -1331 
L 506 -1331 
L 506 -850 
L 844 -850 
Q 1081 -850 1212 -737 
Q 1344 -625 1503 -206 
L 1606 56 
L 191 3500 
L 800 3500 
L 1894 763 
L 2988 3500 
L 3597 3500 
L 2059 -325 
z
" transform="scale(0.015625)"/>
       <path id="DejaVuSans-74" d="M 1172 4494 
L 1172 3500 
L 2356 3500 
L 2356 3053 
L 1172 3053 
L 1172 1153 
Q 1172 725 1289 603 
Q 1406 481 1766 481 
L 2356 481 
L 2356 0 
L 1766 0 
Q 1100 0 847 248 
Q 594 497 594 1153 
L 594 3053 
L 172 3053 
L 172 3500 
L 594 3500 
L 594 4494 
L 1172 4494 
z
" transform="scale(0.015625)"/>
       <path id="DejaVuSans-65" d="M 3597 1894 
L 3597 1613 
L 953 1613 
Q 991 1019 1311 708 
Q 1631 397 2203 397 
Q 2534 397 2845 478 
Q 3156 559 3463 722 
L 3463 178 
Q 3153 47 2828 -22 
Q 2503 -91 2169 -91 
Q 1331 -91 842 396 
Q 353 884 353 1716 
Q 353 2575 817 3079 
Q 1281 3584 2069 3584 
Q 2775 3584 3186 3129 
Q 3597 2675 3597 1894 
z
M 3022 2063 
Q 3016 2534 2758 2815 
Q 2500 3097 2075 3097 
Q 1594 3097 1305 2825 
Q 1016 2553 972 2059 
L 3022 2063 
z
" transform="scale(0.015625)"/>
       <path id="DejaVuSans-20" transform="scale(0.015625)"/>
       <path id="DejaVuSans-56" d="M 1831 0 
L 50 4666 
L 709 4666 
L 2188 738 
L 3669 4666 
L 4325 4666 
L 2547 0 
L 1831 0 
z
" transform="scale(0.015625)"/>
       <path id="DejaVuSans-61" d="M 2194 1759 
Q 1497 1759 1228 1600 
Q 959 1441 959 1056 
Q 959 750 1161 570 
Q 1363 391 1709 391 
Q 2188 391 2477 730 
Q 2766 1069 2766 1631 
L 2766 1759 
L 2194 1759 
z
M 3341 1997 
L 3341 0 
L 2766 0 
L 2766 531 
Q 2569 213 2275 61 
Q 1981 -91 1556 -91 
Q 1019 -91 701 211 
Q 384 513 384 1019 
Q 384 1609 779 1909 
Q 1175 2209 1959 2209 
L 2766 2209 
L 2766 2266 
Q 2766 2663 2505 2880 
Q 2244 3097 1772 3097 
Q 1472 3097 1187 3025 
Q 903 2953 641 2809 
L 641 3341 
Q 956 3463 1253 3523 
Q 1550 3584 1831 3584 
Q 2591 3584 2966 3190 
Q 3341 2797 3341 1997 
z
" transform="scale(0.015625)"/>
       <path id="DejaVuSans-6c" d="M 603 4863 
L 1178 4863 
L 1178 0 
L 603 0 
L 603 4863 
z
" transform="scale(0.015625)"/>
       <path id="DejaVuSans-75" d="M 544 1381 
L 544 3500 
L 1119 3500 
L 1119 1403 
Q 1119 906 1312 657 
Q 1506 409 1894 409 
Q 2359 409 2629 706 
Q 2900 1003 2900 1516 
L 2900 3500 
L 3475 3500 
L 3475 0 
L 2900 0 
L 2900 538 
Q 2691 219 2414 64 
Q 2138 -91 1772 -91 
Q 1169 -91 856 284 
Q 544 659 544 1381 
z
M 1991 3584 
L 1991 3584 
z
" transform="scale(0.015625)"/>
       <path id="DejaVuSans-73" d="M 2834 3397 
L 2834 2853 
Q 2591 2978 2328 3040 
Q 2066 3103 1784 3103 
Q 1356 3103 1142 2972 
Q 928 2841 928 2578 
Q 928 2378 1081 2264 
Q 1234 2150 1697 2047 
L 1894 2003 
Q 2506 1872 2764 1633 
Q 3022 1394 3022 966 
Q 3022 478 2636 193 
Q 2250 -91 1575 -91 
Q 1294 -91 989 -36 
Q 684 19 347 128 
L 347 722 
Q 666 556 975 473 
Q 1284 391 1588 391 
Q 1994 391 2212 530 
Q 2431 669 2431 922 
Q 2431 1156 2273 1281 
Q 2116 1406 1581 1522 
L 1381 1569 
Q 847 1681 609 1914 
Q 372 2147 372 2553 
Q 372 3047 722 3315 
Q 1072 3584 1716 3584 
Q 2034 3584 2315 3537 
Q 2597 3491 2834 3397 
z
" transform="scale(0.015625)"/>
       <path id="DejaVuSans-28" d="M 1984 4856 
Q 1566 4138 1362 3434 
Q 1159 2731 1159 2009 
Q 1159 1288 1364 580 
Q 1569 -128 1984 -844 
L 1484 -844 
Q 1016 -109 783 600 
Q 550 1309 550 2009 
Q 550 2706 781 3412 
Q 1013 4119 1484 4856 
L 1984 4856 
z
" transform="scale(0.015625)"/>
       <path id="DejaVuSans-2d" d="M 313 2009 
L 1997 2009 
L 1997 1497 
L 313 1497 
L 313 2009 
z
" transform="scale(0.015625)"/>
       <path id="DejaVuSans-29" d="M 513 4856 
L 1013 4856 
Q 1481 4119 1714 3412 
Q 1947 2706 1947 2009 
Q 1947 1309 1714 600 
Q 1481 -109 1013 -844 
L 513 -844 
Q 928 -128 1133 580 
Q 1338 1288 1338 2009 
Q 1338 2731 1133 3434 
Q 928 4138 513 4856 
z
" transform="scale(0.015625)"/>
      </defs>
      <use xlink:href="#DejaVuSans-42"/>
      <use xlink:href="#DejaVuSans-79" x="68.603516"/>
      <use xlink:href="#DejaVuSans-74" x="127.783203"/>
      <use xlink:href="#DejaVuSans-65" x="166.992188"/>
      <use xlink:href="#DejaVuSans-20" x="228.515625"/>
      <use xlink:href="#DejaVuSans-56" x="260.302734"/>
      <use xlink:href="#DejaVuSans-61" x="320.960938"/>
      <use xlink:href="#DejaVuSans-6c" x="382.240234"/>
      <use xlink:href="#DejaVuSans-75" x="410.023438"/>
      <use xlink:href="#DejaVuSans-65" x="473.402344"/>
      <use xlink:href="#DejaVuSans-73" x="534.925781"/>
      <use xlink:href="#DejaVuSans-20" x="587.025391"/>
      <use xlink:href="#DejaVuSans-28" x="618.8125"/>
      <use xlink:href="#DejaVuSans-30" x="657.826172"/>
      <use xlink:href="#DejaVuSans-2d" x="721.449219"/>
      <use xlink:href="#DejaVuSans-32" x="757.533203"/>
      <use xlink:href="#DejaVuSans-35" x="821.15625"/>
      <use xlink:href="#DejaVuSans-35" x="884.779297"/>
      <use xlink:href="#DejaVuSans-29" x="948.402344"/>
     </g>
    </g>
   </g>
   <g id="matplotlib.axis_2">
    <g id="ytick_1">
     <g id="line2d_13">
      <path d="M 45 320.4 
L 324 320.4 
" clip-path="url(#p1be069a2da)" style="fill: none; stroke: #b0b0b0; stroke-width: 0.8; stroke-linecap: square"/>
     </g>
     <g id="line2d_14">
      <defs>
       <path id="m1818967057" d="M 0 0 
L -2 0 
" style="stroke: #000000; stroke-width: 0.6"/>
      </defs>
      <g>
       <use xlink:href="#m1818967057" x="45" y="320.4" style="stroke: #000000; stroke-width: 0.6"/>
      </g>
     </g>
     <g id="text_8">
      <!-- $\mathdefault{2\times10^{-3}}$ -->
      <g transform="translate(-2.5 324.199219) scale(0.1 -0.1)">
       <defs>
        <path id="DejaVuSans-d7" d="M 4488 3438 
L 3059 2003 
L 4488 575 
L 4116 197 
L 2681 1631 
L 1247 197 
L 878 575 
L 2303 2003 
L 878 3438 
L 1247 3816 
L 2681 2381 
L 4116 3816 
L 4488 3438 
z
" transform="scale(0.015625)"/>
        <path id="DejaVuSans-2212" d="M 678 2272 
L 4684 2272 
L 4684 1741 
L 678 1741 
L 678 2272 
z
" transform="scale(0.015625)"/>
        <path id="DejaVuSans-33" d="M 2597 2516 
Q 3050 2419 3304 2112 
Q 3559 1806 3559 1356 
Q 3559 666 3084 287 
Q 2609 -91 1734 -91 
Q 1441 -91 1130 -33 
Q 819 25 488 141 
L 488 750 
Q 750 597 1062 519 
Q 1375 441 1716 441 
Q 2309 441 2620 675 
Q 2931 909 2931 1356 
Q 2931 1769 2642 2001 
Q 2353 2234 1838 2234 
L 1294 2234 
L 1294 2753 
L 1863 2753 
Q 2328 2753 2575 2939 
Q 2822 3125 2822 3475 
Q 2822 3834 2567 4026 
Q 2313 4219 1838 4219 
Q 1578 4219 1281 4162 
Q 984 4106 628 3988 
L 628 4550 
Q 988 4650 1302 4700 
Q 1616 4750 1894 4750 
Q 2613 4750 3031 4423 
Q 3450 4097 3450 3541 
Q 3450 3153 3228 2886 
Q 3006 2619 2597 2516 
z
" transform="scale(0.015625)"/>
       </defs>
       <use xlink:href="#DejaVuSans-32" transform="translate(0 0.765625)"/>
       <use xlink:href="#DejaVuSans-d7" transform="translate(83.105469 0.765625)"/>
       <use xlink:href="#DejaVuSans-31" transform="translate(186.376953 0.765625)"/>
       <use xlink:href="#DejaVuSans-30" transform="translate(250 0.765625)"/>
       <use xlink:href="#DejaVuSans-2212" transform="translate(314.580078 39.046875) scale(0.7)"/>
       <use xlink:href="#DejaVuSans-33" transform="translate(373.232422 39.046875) scale(0.7)"/>
      </g>
     </g>
    </g>
    <g id="ytick_2">
     <g id="line2d_15">
      <path d="M 45 197.737046 
L 324 197.737046 
" clip-path="url(#p1be069a2da)" style="fill: none; stroke: #b0b0b0; stroke-width: 0.8; stroke-linecap: square"/>
     </g>
     <g id="line2d_16">
      <g>
       <use xlink:href="#m1818967057" x="45" y="197.737046" style="stroke: #000000; stroke-width: 0.6"/>
      </g>
     </g>
     <g id="text_9">
      <!-- $\mathdefault{3\times10^{-3}}$ -->
      <g transform="translate(-2.5 201.536265) scale(0.1 -0.1)">
       <use xlink:href="#DejaVuSans-33" transform="translate(0 0.765625)"/>
       <use xlink:href="#DejaVuSans-d7" transform="translate(83.105469 0.765625)"/>
       <use xlink:href="#DejaVuSans-31" transform="translate(186.376953 0.765625)"/>
       <use xlink:href="#DejaVuSans-30" transform="translate(250 0.765625)"/>
       <use xlink:href="#DejaVuSans-2212" transform="translate(314.580078 39.046875) scale(0.7)"/>
       <use xlink:href="#DejaVuSans-33" transform="translate(373.232422 39.046875) scale(0.7)"/>
      </g>
     </g>
    </g>
    <g id="ytick_3">
     <g id="line2d_17">
      <path d="M 45 110.706295 
L 324 110.706295 
" clip-path="url(#p1be069a2da)" style="fill: none; stroke: #b0b0b0; stroke-width: 0.8; stroke-linecap: square"/>
     </g>
     <g id="line2d_18">
      <g>
       <use xlink:href="#m1818967057" x="45" y="110.706295" style="stroke: #000000; stroke-width: 0.6"/>
      </g>
     </g>
     <g id="text_10">
      <!-- $\mathdefault{4\times10^{-3}}$ -->
      <g transform="translate(-2.5 114.505514) scale(0.1 -0.1)">
       <defs>
        <path id="DejaVuSans-34" d="M 2419 4116 
L 825 1625 
L 2419 1625 
L 2419 4116 
z
M 2253 4666 
L 3047 4666 
L 3047 1625 
L 3713 1625 
L 3713 1100 
L 3047 1100 
L 3047 0 
L 2419 0 
L 2419 1100 
L 313 1100 
L 313 1709 
L 2253 4666 
z
" transform="scale(0.015625)"/>
       </defs>
       <use xlink:href="#DejaVuSans-34" transform="translate(0 0.765625)"/>
       <use xlink:href="#DejaVuSans-d7" transform="translate(83.105469 0.765625)"/>
       <use xlink:href="#DejaVuSans-31" transform="translate(186.376953 0.765625)"/>
       <use xlink:href="#DejaVuSans-30" transform="translate(250 0.765625)"/>
       <use xlink:href="#DejaVuSans-2212" transform="translate(314.580078 39.046875) scale(0.7)"/>
       <use xlink:href="#DejaVuSans-33" transform="translate(373.232422 39.046875) scale(0.7)"/>
      </g>
     </g>
    </g>
    <g id="ytick_4">
     <g id="line2d_19">
      <path d="M 45 43.2 
L 324 43.2 
" clip-path="url(#p1be069a2da)" style="fill: none; stroke: #b0b0b0; stroke-width: 0.8; stroke-linecap: square"/>
     </g>
     <g id="line2d_20">
      <g>
       <use xlink:href="#m1818967057" x="45" y="43.2" style="stroke: #000000; stroke-width: 0.6"/>
      </g>
     </g>
     <g id="text_11">
      <!-- $\mathdefault{5\times10^{-3}}$ -->
      <g transform="translate(-2.5 46.999219) scale(0.1 -0.1)">
       <use xlink:href="#DejaVuSans-35" transform="translate(0 0.765625)"/>
       <use xlink:href="#DejaVuSans-d7" transform="translate(83.105469 0.765625)"/>
       <use xlink:href="#DejaVuSans-31" transform="translate(186.376953 0.765625)"/>
       <use xlink:href="#DejaVuSans-30" transform="translate(250 0.765625)"/>
       <use xlink:href="#DejaVuSans-2212" transform="translate(314.580078 39.046875) scale(0.7)"/>
       <use xlink:href="#DejaVuSans-33" transform="translate(373.232422 39.046875) scale(0.7)"/>
      </g>
     </g>
    </g>
    <g id="text_12">
     <!-- Density -->
     <g transform="translate(-8.579688 200.808594) rotate(-90) scale(0.1 -0.1)">
      <defs>
       <path id="DejaVuSans-44" d="M 1259 4147 
L 1259 519 
L 2022 519 
Q 2988 519 3436 956 
Q 3884 1394 3884 2338 
Q 3884 3275 3436 3711 
Q 2988 4147 2022 4147 
L 1259 4147 
z
M 628 4666 
L 1925 4666 
Q 3281 4666 3915 4102 
Q 4550 3538 4550 2338 
Q 4550 1131 3912 565 
Q 3275 0 1925 0 
L 628 0 
L 628 4666 
z
" transform="scale(0.015625)"/>
       <path id="DejaVuSans-6e" d="M 3513 2113 
L 3513 0 
L 2938 0 
L 2938 2094 
Q 2938 2591 2744 2837 
Q 2550 3084 2163 3084 
Q 1697 3084 1428 2787 
Q 1159 2491 1159 1978 
L 1159 0 
L 581 0 
L 581 3500 
L 1159 3500 
L 1159 2956 
Q 1366 3272 1645 3428 
Q 1925 3584 2291 3584 
Q 2894 3584 3203 3211 
Q 3513 2838 3513 2113 
z
" transform="scale(0.015625)"/>
       <path id="DejaVuSans-69" d="M 603 3500 
L 1178 3500 
L 1178 0 
L 603 0 
L 603 3500 
z
M 603 4863 
L 1178 4863 
L 1178 4134 
L 603 4134 
L 603 4863 
z
" transform="scale(0.015625)"/>
      </defs>
      <use xlink:href="#DejaVuSans-44"/>
      <use xlink:href="#DejaVuSans-65" x="77.001953"/>
      <use xlink:href="#DejaVuSans-6e" x="138.525391"/>
      <use xlink:href="#DejaVuSans-73" x="201.904297"/>
      <use xlink:href="#DejaVuSans-69" x="254.003906"/>
      <use xlink:href="#DejaVuSans-74" x="281.787109"/>
      <use xlink:href="#DejaVuSans-79" x="320.996094"/>
     </g>
    </g>
   </g>
   <g id="patch_3">
    <path d="M 45 320.4 
L 45 43.2 
" style="fill: none; stroke: #000000; stroke-width: 0.8; stroke-linejoin: miter; stroke-linecap: square"/>
   </g>
   <g id="patch_4">
    <path d="M 324 320.4 
L 324 43.2 
" style="fill: none; stroke: #000000; stroke-width: 0.8; stroke-linejoin: miter; stroke-linecap: square"/>
   </g>
   <g id="patch_5">
    <path d="M 45 320.4 
L 324 320.4 
" style="fill: none; stroke: #000000; stroke-width: 0.8; stroke-linejoin: miter; stroke-linecap: square"/>
   </g>
   <g id="patch_6">
    <path d="M 45 43.2 
L 324 43.2 
" style="fill: none; stroke: #000000; stroke-width: 0.8; stroke-linejoin: miter; stroke-linecap: square"/>
   </g>
  </g>
 </g>
 <defs>
  <clipPath id="p1be069a2da">
   <rect x="45" y="43.2" width="279" height="277.2"/>
  </clipPath>
 </defs>
</svg>
