<?xml version="1.0" encoding="utf-8" standalone="no"?>
<!DOCTYPE svg PUBLIC "-//W3C//DTD SVG 1.1//EN"
  "http://www.w3.org/Graphics/SVG/1.1/DTD/svg11.dtd">
<svg xmlns:xlink="http://www.w3.org/1999/xlink" width="360pt" height="360pt" viewBox="0 0 360 360" xmlns="http://www.w3.org/2000/svg" version="1.1">
 <metadata>
  <rdf:RDF xmlns:dc="http://purl.org/dc/elements/1.1/" xmlns:cc="http://creativecommons.org/ns#" xmlns:rdf="http://www.w3.org/1999/02/22-rdf-syntax-ns#">
   <cc:Work>
    <dc:type rdf:resource="http://purl.org/dc/dcmitype/StillImage"/>
    <dc:date>2024-09-19T17:36:14.369503</dc:date>
    <dc:format>image/svg+xml</dc:format>
    <dc:creator>
     <cc:Agent>
      <dc:title>Matplotlib v3.9.2, https://matplotlib.org/</dc:title>
     </cc:Agent>
    </dc:creator>
   </cc:Work>
  </rdf:RDF>
 </metadata>
 <defs>
  <style type="text/css">*{stroke-linejoin: round; stroke-linecap: butt}</style>
 </defs>
 <g id="figure_1">
  <g id="patch_1">
   <path d="M 0 360 
L 360 360 
L 360 0 
L 0 0 
z
" style="fill: #ffffff"/>
  </g>
  <g id="axes_1">
   <g id="patch_2">
    <path d="M 45 320.4 
L 324 320.4 
L 324 43.2 
L 45 43.2 
z
" style="fill: #ffffff"/>
   </g>
   <g id="PolyCollection_1">
    <path d="M 35.496766 1777.821825 
L 35.496766 695027.741535 
L 36.98881 695027.741535 
L 38.480853 695027.741535 
L 39.972896 695027.741535 
L 41.46494 695027.741535 
L 42.956983 695027.741535 
L 44.449026 695027.741535 
L 45.94107 695027.741535 
L 47.433113 695027.741535 
L 48.925156 695027.741535 
L 50.4172 695027.741535 
L 51.909243 695027.741535 
L 53.401286 695027.741535 
L 54.89333 695027.741535 
L 56.385373 695027.741535 
L 57.877416 695027.741535 
L 59.36946 695027.741535 
L 60.861503 695027.741535 
L 62.353546 695027.741535 
L 63.84559 695027.741535 
L 65.337633 695027.741535 
L 66.829676 695027.741535 
L 68.32172 695027.741535 
L 69.813763 695027.741535 
L 71.305806 695027.741535 
L 72.79785 695027.741535 
L 74.289893 695027.741535 
L 75.781936 695027.741535 
L 77.27398 695027.741535 
L 78.766023 695027.741535 
L 80.258066 695027.741535 
L 81.75011 695027.741535 
L 83.242153 695027.741535 
L 84.734196 695027.741535 
L 86.22624 695027.741535 
L 87.718283 695027.741535 
L 89.210326 695027.741535 
L 90.70237 695027.741535 
L 92.194413 695027.741535 
L 93.686456 695027.741535 
L 95.1785 695027.741535 
L 96.670543 695027.741535 
L 98.162586 695027.741535 
L 99.65463 695027.741535 
L 101.146673 695027.741535 
L 102.638716 695027.741535 
L 104.13076 695027.741535 
L 105.622803 695027.741535 
L 107.114846 695027.741535 
L 108.60689 695027.741535 
L 110.098933 695027.741535 
L 111.590976 695027.741535 
L 113.08302 695027.741535 
L 114.575063 695027.741535 
L 116.067106 695027.741535 
L 117.55915 695027.741535 
L 119.051193 695027.741535 
L 120.543236 695027.741535 
L 122.03528 695027.741535 
L 123.527323 695027.741535 
L 125.019366 695027.741535 
L 126.51141 695027.741535 
L 128.003453 695027.741535 
L 129.495496 695027.741535 
L 130.98754 695027.741535 
L 132.479583 695027.741535 
L 133.971626 695027.741535 
L 135.46367 695027.741535 
L 136.955713 695027.741535 
L 138.447756 695027.741535 
L 139.9398 695027.741535 
L 141.431843 695027.741535 
L 142.923886 695027.741535 
L 144.41593 695027.741535 
L 145.907973 695027.741535 
L 147.400016 695027.741535 
L 148.89206 695027.741535 
L 150.384103 695027.741535 
L 151.876146 695027.741535 
L 153.36819 695027.741535 
L 154.860233 695027.741535 
L 156.352276 695027.741535 
L 157.84432 695027.741535 
L 159.336363 695027.741535 
L 160.828406 695027.741535 
L 162.32045 695027.741535 
L 163.812493 695027.741535 
L 165.304536 695027.741535 
L 166.79658 695027.741535 
L 168.288623 695027.741535 
L 169.780666 695027.741535 
L 171.27271 695027.741535 
L 172.764753 695027.741535 
L 174.256796 695027.741535 
L 175.74884 695027.741535 
L 177.240883 695027.741535 
L 178.732926 695027.741535 
L 180.22497 695027.741535 
L 181.717013 695027.741535 
L 183.209056 695027.741535 
L 184.7011 695027.741535 
L 186.193143 695027.741535 
L 187.685186 695027.741535 
L 189.17723 695027.741535 
L 190.669273 695027.741535 
L 192.161316 695027.741535 
L 193.65336 695027.741535 
L 195.145403 695027.741535 
L 196.637446 695027.741535 
L 198.12949 695027.741535 
L 199.621533 695027.741535 
L 201.113576 695027.741535 
L 202.60562 695027.741535 
L 204.097663 695027.741535 
L 205.589706 695027.741535 
L 207.08175 695027.741535 
L 208.573793 695027.741535 
L 210.065836 695027.741535 
L 211.55788 695027.741535 
L 213.049923 695027.741535 
L 214.541966 695027.741535 
L 216.03401 695027.741535 
L 217.526053 695027.741535 
L 219.018096 695027.741535 
L 220.51014 695027.741535 
L 222.002183 695027.741535 
L 223.494226 695027.741535 
L 224.98627 695027.741535 
L 226.478313 695027.741535 
L 227.970356 695027.741535 
L 229.4624 695027.741535 
L 230.954443 695027.741535 
L 232.446486 695027.741535 
L 233.93853 695027.741535 
L 235.430573 695027.741535 
L 236.922616 695027.741535 
L 238.41466 695027.741535 
L 239.906703 695027.741535 
L 241.398746 695027.741535 
L 242.89079 695027.741535 
L 244.382833 695027.741535 
L 245.874876 695027.741535 
L 247.36692 695027.741535 
L 248.858963 695027.741535 
L 250.351006 695027.741535 
L 251.84305 695027.741535 
L 253.335093 695027.741535 
L 254.827136 695027.741535 
L 256.31918 695027.741535 
L 257.811223 695027.741535 
L 259.303266 695027.741535 
L 260.79531 695027.741535 
L 262.287353 695027.741535 
L 263.779396 695027.741535 
L 265.27144 695027.741535 
L 266.763483 695027.741535 
L 268.255526 695027.741535 
L 269.74757 695027.741535 
L 271.239613 695027.741535 
L 272.731656 695027.741535 
L 274.2237 695027.741535 
L 275.715743 695027.741535 
L 277.207786 695027.741535 
L 278.69983 695027.741535 
L 280.191873 695027.741535 
L 281.683916 695027.741535 
L 283.17596 695027.741535 
L 284.668003 695027.741535 
L 286.160046 695027.741535 
L 287.65209 695027.741535 
L 289.144133 695027.741535 
L 290.636176 695027.741535 
L 292.12822 695027.741535 
L 293.620263 695027.741535 
L 295.112306 695027.741535 
L 296.60435 695027.741535 
L 298.096393 695027.741535 
L 299.588436 695027.741535 
L 301.08048 695027.741535 
L 302.572523 695027.741535 
L 304.064566 695027.741535 
L 305.55661 695027.741535 
L 307.048653 695027.741535 
L 308.540697 695027.741535 
L 310.03274 695027.741535 
L 311.524783 695027.741535 
L 313.016827 695027.741535 
L 314.50887 695027.741535 
L 316.000913 695027.741535 
L 317.492957 695027.741535 
L 318.985 695027.741535 
L 320.477043 695027.741535 
L 321.969087 695027.741535 
L 323.46113 695027.741535 
L 324.953173 695027.741535 
L 326.445217 695027.741535 
L 327.93726 695027.741535 
L 329.429303 695027.741535 
L 330.921347 695027.741535 
L 332.41339 695027.741535 
L 332.41339 1977.506144 
L 332.41339 1977.506144 
L 330.921347 1557.278519 
L 329.429303 1198.019172 
L 327.93726 897.925325 
L 326.445217 654.551556 
L 324.953173 464.554253 
L 323.46113 323.345107 
L 321.969087 224.703721 
L 320.477043 160.607869 
L 318.985 121.847752 
L 317.492957 99.811376 
L 316.000913 88.400624 
L 314.50887 83.852383 
L 313.016827 82.437811 
L 311.524783 79.580214 
L 310.03274 72.795483 
L 308.540697 64.793044 
L 307.048653 61.367367 
L 305.55661 65.954188 
L 304.064566 76.789572 
L 302.572523 88.823719 
L 301.08048 97.973548 
L 299.588436 103.125936 
L 298.096393 104.243493 
L 296.60435 100.271397 
L 295.112306 90.379277 
L 293.620263 76.933718 
L 292.12822 65.60796 
L 290.636176 61.742337 
L 289.144133 66.751178 
L 287.65209 77.535613 
L 286.160046 88.929694 
L 284.668003 97.107324 
L 283.17596 101.014132 
L 281.683916 101.318674 
L 280.191873 99.355342 
L 278.69983 97.119733 
L 277.207786 96.903736 
L 275.715743 100.083661 
L 274.2237 106.320992 
L 272.731656 114.11934 
L 271.239613 122.160695 
L 269.74757 129.674041 
L 268.255526 135.154777 
L 266.763483 135.611801 
L 265.27144 128.658795 
L 263.779396 115.643997 
L 262.287353 101.61689 
L 260.79531 91.948455 
L 259.303266 89.19454 
L 257.811223 92.215578 
L 256.31918 97.304498 
L 254.827136 100.634593 
L 253.335093 100.753212 
L 251.84305 99.062741 
L 250.351006 97.789821 
L 248.858963 97.697614 
L 247.36692 97.853009 
L 245.874876 97.440575 
L 244.382833 97.441886 
L 242.89079 99.942343 
L 241.398746 105.455687 
L 239.906703 111.186442 
L 238.41466 112.917571 
L 236.922616 109.566701 
L 235.430573 104.962407 
L 233.93853 104.129693 
L 232.446486 108.716238 
L 230.954443 116.226135 
L 229.4624 123.002423 
L 227.970356 127.764259 
L 226.478313 132.161756 
L 224.98627 138.053163 
L 223.494226 144.494291 
L 222.002183 147.456124 
L 220.51014 143.44615 
L 219.018096 134.081172 
L 217.526053 125.743283 
L 216.03401 124.320453 
L 214.541966 130.92719 
L 213.049923 141.588725 
L 211.55788 150.163109 
L 210.065836 152.513349 
L 208.573793 148.631369 
L 207.08175 140.939565 
L 205.589706 131.504937 
L 204.097663 121.329088 
L 202.60562 111.433345 
L 201.113576 103.820142 
L 199.621533 101.098133 
L 198.12949 104.892193 
L 196.637446 114.352794 
L 195.145403 126.281589 
L 193.65336 137.161044 
L 192.161316 145.312784 
L 190.669273 150.839346 
L 189.17723 153.643649 
L 187.685186 152.219987 
L 186.193143 144.735845 
L 184.7011 131.210341 
L 183.209056 114.360932 
L 181.717013 98.15919 
L 180.22497 85.677875 
L 178.732926 78.212032 
L 177.240883 75.820302 
L 175.74884 77.941795 
L 174.256796 83.269403 
L 172.764753 89.68373 
L 171.27271 95.158353 
L 169.780666 98.822946 
L 168.288623 100.860635 
L 166.79658 101.671462 
L 165.304536 101.632774 
L 163.812493 101.588961 
L 162.32045 103.134656 
L 160.828406 108.00229 
L 159.336363 116.807748 
L 157.84432 128.201263 
L 156.352276 139.376493 
L 154.860233 147.581656 
L 153.36819 150.979816 
L 151.876146 148.37124 
L 150.384103 139.595886 
L 148.89206 126.949777 
L 147.400016 114.868457 
L 145.907973 107.26773 
L 144.41593 105.523854 
L 142.923886 108.814675 
L 141.431843 115.72891 
L 139.9398 125.284805 
L 138.447756 136.441847 
L 136.955713 146.954229 
L 135.46367 153.538706 
L 133.971626 154.113302 
L 132.479583 149.883206 
L 130.98754 144.36374 
L 129.495496 140.169168 
L 128.003453 137.336358 
L 126.51141 135.013362 
L 125.019366 134.220945 
L 123.527323 137.96357 
L 122.03528 148.260566 
L 120.543236 162.914478 
L 119.051193 174.760081 
L 117.55915 175.222202 
L 116.067106 160.990917 
L 114.575063 137.158929 
L 113.08302 113.004912 
L 111.590976 95.926934 
L 110.098933 88.810875 
L 108.60689 90.635854 
L 107.114846 98.418523 
L 105.622803 109.047822 
L 104.13076 120.222305 
L 102.638716 130.513139 
L 101.146673 138.978143 
L 99.65463 144.739302 
L 98.162586 147.065785 
L 96.670543 146.231519 
L 95.1785 144.271522 
L 93.686456 144.222036 
L 92.194413 147.860279 
L 90.70237 153.80954 
L 89.210326 158.112688 
L 87.718283 157.544999 
L 86.22624 152.549983 
L 84.734196 146.112329 
L 83.242153 139.952221 
L 81.75011 132.926648 
L 80.258066 123.591422 
L 78.766023 113.452426 
L 77.27398 106.342954 
L 75.781936 105.014804 
L 74.289893 109.381854 
L 72.79785 117.655663 
L 71.305806 128.201487 
L 69.813763 139.905553 
L 68.32172 151.19268 
L 66.829676 159.555695 
L 65.337633 162.730558 
L 63.84559 160.65369 
L 62.353546 156.122947 
L 60.861503 153.129644 
L 59.36946 154.18605 
L 57.877416 158.827545 
L 56.385373 164.376928 
L 54.89333 168.29164 
L 53.401286 169.822734 
L 51.909243 169.429272 
L 50.4172 167.854449 
L 48.925156 167.778686 
L 47.433113 176.661331 
L 45.94107 206.448789 
L 44.449026 270.008666 
L 42.956983 378.037628 
L 41.46494 538.179642 
L 39.972896 755.502194 
L 38.480853 1033.271845 
L 36.98881 1373.589635 
L 35.496766 1777.821825 
z
" clip-path="url(#p4d786675ff)" style="fill-opacity: 0.25; stroke: #000000"/>
   </g>
   <g id="matplotlib.axis_1">
    <g id="xtick_1">
     <g id="line2d_1">
      <path d="M 45 320.4 
L 45 43.2 
" clip-path="url(#p4d786675ff)" style="fill: none; stroke: #b0b0b0; stroke-width: 0.8; stroke-linecap: square"/>
     </g>
     <g id="line2d_2">
      <defs>
       <path id="mcdb9912639" d="M 0 0 
L 0 3.5 
" style="stroke: #000000; stroke-width: 0.8"/>
      </defs>
      <g>
       <use xlink:href="#mcdb9912639" x="45" y="320.4" style="stroke: #000000; stroke-width: 0.8"/>
      </g>
     </g>
     <g id="text_1">
      <!-- 0 -->
      <g transform="translate(41.81875 334.998438) scale(0.1 -0.1)">
       <defs>
        <path id="DejaVuSans-30" d="M 2034 4250 
Q 1547 4250 1301 3770 
Q 1056 3291 1056 2328 
Q 1056 1369 1301 889 
Q 1547 409 2034 409 
Q 2525 409 2770 889 
Q 3016 1369 3016 2328 
Q 3016 3291 2770 3770 
Q 2525 4250 2034 4250 
z
M 2034 4750 
Q 2819 4750 3233 4129 
Q 3647 3509 3647 2328 
Q 3647 1150 3233 529 
Q 2819 -91 2034 -91 
Q 1250 -91 836 529 
Q 422 1150 422 2328 
Q 422 3509 836 4129 
Q 1250 4750 2034 4750 
z
" transform="scale(0.015625)"/>
       </defs>
       <use xlink:href="#DejaVuSans-30"/>
      </g>
     </g>
    </g>
    <g id="xtick_2">
     <g id="line2d_3">
      <path d="M 99.492188 320.4 
L 99.492188 43.2 
" clip-path="url(#p4d786675ff)" style="fill: none; stroke: #b0b0b0; stroke-width: 0.8; stroke-linecap: square"/>
     </g>
     <g id="line2d_4">
      <g>
       <use xlink:href="#mcdb9912639" x="99.492188" y="320.4" style="stroke: #000000; stroke-width: 0.8"/>
      </g>
     </g>
     <g id="text_2">
      <!-- 50 -->
      <g transform="translate(93.129688 334.998438) scale(0.1 -0.1)">
       <defs>
        <path id="DejaVuSans-35" d="M 691 4666 
L 3169 4666 
L 3169 4134 
L 1269 4134 
L 1269 2991 
Q 1406 3038 1543 3061 
Q 1681 3084 1819 3084 
Q 2600 3084 3056 2656 
Q 3513 2228 3513 1497 
Q 3513 744 3044 326 
Q 2575 -91 1722 -91 
Q 1428 -91 1123 -41 
Q 819 9 494 109 
L 494 744 
Q 775 591 1075 516 
Q 1375 441 1709 441 
Q 2250 441 2565 725 
Q 2881 1009 2881 1497 
Q 2881 1984 2565 2268 
Q 2250 2553 1709 2553 
Q 1456 2553 1204 2497 
Q 953 2441 691 2322 
L 691 4666 
z
" transform="scale(0.015625)"/>
       </defs>
       <use xlink:href="#DejaVuSans-35"/>
       <use xlink:href="#DejaVuSans-30" x="63.623047"/>
      </g>
     </g>
    </g>
    <g id="xtick_3">
     <g id="line2d_5">
      <path d="M 153.984375 320.4 
L 153.984375 43.2 
" clip-path="url(#p4d786675ff)" style="fill: none; stroke: #b0b0b0; stroke-width: 0.8; stroke-linecap: square"/>
     </g>
     <g id="line2d_6">
      <g>
       <use xlink:href="#mcdb9912639" x="153.984375" y="320.4" style="stroke: #000000; stroke-width: 0.8"/>
      </g>
     </g>
     <g id="text_3">
      <!-- 100 -->
      <g transform="translate(144.440625 334.998438) scale(0.1 -0.1)">
       <defs>
        <path id="DejaVuSans-31" d="M 794 531 
L 1825 531 
L 1825 4091 
L 703 3866 
L 703 4441 
L 1819 4666 
L 2450 4666 
L 2450 531 
L 3481 531 
L 3481 0 
L 794 0 
L 794 531 
z
" transform="scale(0.015625)"/>
       </defs>
       <use xlink:href="#DejaVuSans-31"/>
       <use xlink:href="#DejaVuSans-30" x="63.623047"/>
       <use xlink:href="#DejaVuSans-30" x="127.246094"/>
      </g>
     </g>
    </g>
    <g id="xtick_4">
     <g id="line2d_7">
      <path d="M 208.476562 320.4 
L 208.476562 43.2 
" clip-path="url(#p4d786675ff)" style="fill: none; stroke: #b0b0b0; stroke-width: 0.8; stroke-linecap: square"/>
     </g>
     <g id="line2d_8">
      <g>
       <use xlink:href="#mcdb9912639" x="208.476562" y="320.4" style="stroke: #000000; stroke-width: 0.8"/>
      </g>
     </g>
     <g id="text_4">
      <!-- 150 -->
      <g transform="translate(198.932813 334.998438) scale(0.1 -0.1)">
       <use xlink:href="#DejaVuSans-31"/>
       <use xlink:href="#DejaVuSans-35" x="63.623047"/>
       <use xlink:href="#DejaVuSans-30" x="127.246094"/>
      </g>
     </g>
    </g>
    <g id="xtick_5">
     <g id="line2d_9">
      <path d="M 262.96875 320.4 
L 262.96875 43.2 
" clip-path="url(#p4d786675ff)" style="fill: none; stroke: #b0b0b0; stroke-width: 0.8; stroke-linecap: square"/>
     </g>
     <g id="line2d_10">
      <g>
       <use xlink:href="#mcdb9912639" x="262.96875" y="320.4" style="stroke: #000000; stroke-width: 0.8"/>
      </g>
     </g>
     <g id="text_5">
      <!-- 200 -->
      <g transform="translate(253.425 334.998438) scale(0.1 -0.1)">
       <defs>
        <path id="DejaVuSans-32" d="M 1228 531 
L 3431 531 
L 3431 0 
L 469 0 
L 469 531 
Q 828 903 1448 1529 
Q 2069 2156 2228 2338 
Q 2531 2678 2651 2914 
Q 2772 3150 2772 3378 
Q 2772 3750 2511 3984 
Q 2250 4219 1831 4219 
Q 1534 4219 1204 4116 
Q 875 4013 500 3803 
L 500 4441 
Q 881 4594 1212 4672 
Q 1544 4750 1819 4750 
Q 2544 4750 2975 4387 
Q 3406 4025 3406 3419 
Q 3406 3131 3298 2873 
Q 3191 2616 2906 2266 
Q 2828 2175 2409 1742 
Q 1991 1309 1228 531 
z
" transform="scale(0.015625)"/>
       </defs>
       <use xlink:href="#DejaVuSans-32"/>
       <use xlink:href="#DejaVuSans-30" x="63.623047"/>
       <use xlink:href="#DejaVuSans-30" x="127.246094"/>
      </g>
     </g>
    </g>
    <g id="xtick_6">
     <g id="line2d_11">
      <path d="M 317.460938 320.4 
L 317.460938 43.2 
" clip-path="url(#p4d786675ff)" style="fill: none; stroke: #b0b0b0; stroke-width: 0.8; stroke-linecap: square"/>
     </g>
     <g id="line2d_12">
      <g>
       <use xlink:href="#mcdb9912639" x="317.460938" y="320.4" style="stroke: #000000; stroke-width: 0.8"/>
      </g>
     </g>
     <g id="text_6">
      <!-- 250 -->
      <g transform="translate(307.917188 334.998438) scale(0.1 -0.1)">
       <use xlink:href="#DejaVuSans-32"/>
       <use xlink:href="#DejaVuSans-35" x="63.623047"/>
       <use xlink:href="#DejaVuSans-30" x="127.246094"/>
      </g>
     </g>
    </g>
    <g id="text_7">
     <!-- Byte Values (0-255) -->
     <g transform="translate(135.128906 348.676562) scale(0.1 -0.1)">
      <defs>
       <path id="DejaVuSans-42" d="M 1259 2228 
L 1259 519 
L 2272 519 
Q 2781 519 3026 730 
Q 3272 941 3272 1375 
Q 3272 1813 3026 2020 
Q 2781 2228 2272 2228 
L 1259 2228 
z
M 1259 4147 
L 1259 2741 
L 2194 2741 
Q 2656 2741 2882 2914 
Q 3109 3088 3109 3444 
Q 3109 3797 2882 3972 
Q 2656 4147 2194 4147 
L 1259 4147 
z
M 628 4666 
L 2241 4666 
Q 2963 4666 3353 4366 
Q 3744 4066 3744 3513 
Q 3744 3084 3544 2831 
Q 3344 2578 2956 2516 
Q 3422 2416 3680 2098 
Q 3938 1781 3938 1306 
Q 3938 681 3513 340 
Q 3088 0 2303 0 
L 628 0 
L 628 4666 
z
" transform="scale(0.015625)"/>
       <path id="DejaVuSans-79" d="M 2059 -325 
Q 1816 -950 1584 -1140 
Q 1353 -1331 966 -1331 
L 506 -1331 
L 506 -850 
L 844 -850 
Q 1081 -850 1212 -737 
Q 1344 -625 1503 -206 
L 1606 56 
L 191 3500 
L 800 3500 
L 1894 763 
L 2988 3500 
L 3597 3500 
L 2059 -325 
z
" transform="scale(0.015625)"/>
       <path id="DejaVuSans-74" d="M 1172 4494 
L 1172 3500 
L 2356 3500 
L 2356 3053 
L 1172 3053 
L 1172 1153 
Q 1172 725 1289 603 
Q 1406 481 1766 481 
L 2356 481 
L 2356 0 
L 1766 0 
Q 1100 0 847 248 
Q 594 497 594 1153 
L 594 3053 
L 172 3053 
L 172 3500 
L 594 3500 
L 594 4494 
L 1172 4494 
z
" transform="scale(0.015625)"/>
       <path id="DejaVuSans-65" d="M 3597 1894 
L 3597 1613 
L 953 1613 
Q 991 1019 1311 708 
Q 1631 397 2203 397 
Q 2534 397 2845 478 
Q 3156 559 3463 722 
L 3463 178 
Q 3153 47 2828 -22 
Q 2503 -91 2169 -91 
Q 1331 -91 842 396 
Q 353 884 353 1716 
Q 353 2575 817 3079 
Q 1281 3584 2069 3584 
Q 2775 3584 3186 3129 
Q 3597 2675 3597 1894 
z
M 3022 2063 
Q 3016 2534 2758 2815 
Q 2500 3097 2075 3097 
Q 1594 3097 1305 2825 
Q 1016 2553 972 2059 
L 3022 2063 
z
" transform="scale(0.015625)"/>
       <path id="DejaVuSans-20" transform="scale(0.015625)"/>
       <path id="DejaVuSans-56" d="M 1831 0 
L 50 4666 
L 709 4666 
L 2188 738 
L 3669 4666 
L 4325 4666 
L 2547 0 
L 1831 0 
z
" transform="scale(0.015625)"/>
       <path id="DejaVuSans-61" d="M 2194 1759 
Q 1497 1759 1228 1600 
Q 959 1441 959 1056 
Q 959 750 1161 570 
Q 1363 391 1709 391 
Q 2188 391 2477 730 
Q 2766 1069 2766 1631 
L 2766 1759 
L 2194 1759 
z
M 3341 1997 
L 3341 0 
L 2766 0 
L 2766 531 
Q 2569 213 2275 61 
Q 1981 -91 1556 -91 
Q 1019 -91 701 211 
Q 384 513 384 1019 
Q 384 1609 779 1909 
Q 1175 2209 1959 2209 
L 2766 2209 
L 2766 2266 
Q 2766 2663 2505 2880 
Q 2244 3097 1772 3097 
Q 1472 3097 1187 3025 
Q 903 2953 641 2809 
L 641 3341 
Q 956 3463 1253 3523 
Q 1550 3584 1831 3584 
Q 2591 3584 2966 3190 
Q 3341 2797 3341 1997 
z
" transform="scale(0.015625)"/>
       <path id="DejaVuSans-6c" d="M 603 4863 
L 1178 4863 
L 1178 0 
L 603 0 
L 603 4863 
z
" transform="scale(0.015625)"/>
       <path id="DejaVuSans-75" d="M 544 1381 
L 544 3500 
L 1119 3500 
L 1119 1403 
Q 1119 906 1312 657 
Q 1506 409 1894 409 
Q 2359 409 2629 706 
Q 2900 1003 2900 1516 
L 2900 3500 
L 3475 3500 
L 3475 0 
L 2900 0 
L 2900 538 
Q 2691 219 2414 64 
Q 2138 -91 1772 -91 
Q 1169 -91 856 284 
Q 544 659 544 1381 
z
M 1991 3584 
L 1991 3584 
z
" transform="scale(0.015625)"/>
       <path id="DejaVuSans-73" d="M 2834 3397 
L 2834 2853 
Q 2591 2978 2328 3040 
Q 2066 3103 1784 3103 
Q 1356 3103 1142 2972 
Q 928 2841 928 2578 
Q 928 2378 1081 2264 
Q 1234 2150 1697 2047 
L 1894 2003 
Q 2506 1872 2764 1633 
Q 3022 1394 3022 966 
Q 3022 478 2636 193 
Q 2250 -91 1575 -91 
Q 1294 -91 989 -36 
Q 684 19 347 128 
L 347 722 
Q 666 556 975 473 
Q 1284 391 1588 391 
Q 1994 391 2212 530 
Q 2431 669 2431 922 
Q 2431 1156 2273 1281 
Q 2116 1406 1581 1522 
L 1381 1569 
Q 847 1681 609 1914 
Q 372 2147 372 2553 
Q 372 3047 722 3315 
Q 1072 3584 1716 3584 
Q 2034 3584 2315 3537 
Q 2597 3491 2834 3397 
z
" transform="scale(0.015625)"/>
       <path id="DejaVuSans-28" d="M 1984 4856 
Q 1566 4138 1362 3434 
Q 1159 2731 1159 2009 
Q 1159 1288 1364 580 
Q 1569 -128 1984 -844 
L 1484 -844 
Q 1016 -109 783 600 
Q 550 1309 550 2009 
Q 550 2706 781 3412 
Q 1013 4119 1484 4856 
L 1984 4856 
z
" transform="scale(0.015625)"/>
       <path id="DejaVuSans-2d" d="M 313 2009 
L 1997 2009 
L 1997 1497 
L 313 1497 
L 313 2009 
z
" transform="scale(0.015625)"/>
       <path id="DejaVuSans-29" d="M 513 4856 
L 1013 4856 
Q 1481 4119 1714 3412 
Q 1947 2706 1947 2009 
Q 1947 1309 1714 600 
Q 1481 -109 1013 -844 
L 513 -844 
Q 928 -128 1133 580 
Q 1338 1288 1338 2009 
Q 1338 2731 1133 3434 
Q 928 4138 513 4856 
z
" transform="scale(0.015625)"/>
      </defs>
      <use xlink:href="#DejaVuSans-42"/>
      <use xlink:href="#DejaVuSans-79" x="68.603516"/>
      <use xlink:href="#DejaVuSans-74" x="127.783203"/>
      <use xlink:href="#DejaVuSans-65" x="166.992188"/>
      <use xlink:href="#DejaVuSans-20" x="228.515625"/>
      <use xlink:href="#DejaVuSans-56" x="260.302734"/>
      <use xlink:href="#DejaVuSans-61" x="320.960938"/>
      <use xlink:href="#DejaVuSans-6c" x="382.240234"/>
      <use xlink:href="#DejaVuSans-75" x="410.023438"/>
      <use xlink:href="#DejaVuSans-65" x="473.402344"/>
      <use xlink:href="#DejaVuSans-73" x="534.925781"/>
      <use xlink:href="#DejaVuSans-20" x="587.025391"/>
      <use xlink:href="#DejaVuSans-28" x="618.8125"/>
      <use xlink:href="#DejaVuSans-30" x="657.826172"/>
      <use xlink:href="#DejaVuSans-2d" x="721.449219"/>
      <use xlink:href="#DejaVuSans-32" x="757.533203"/>
      <use xlink:href="#DejaVuSans-35" x="821.15625"/>
      <use xlink:href="#DejaVuSans-35" x="884.779297"/>
      <use xlink:href="#DejaVuSans-29" x="948.402344"/>
     </g>
    </g>
   </g>
   <g id="matplotlib.axis_2">
    <g id="ytick_1">
     <g id="line2d_13">
      <path d="M 45 320.4 
L 324 320.4 
" clip-path="url(#p4d786675ff)" style="fill: none; stroke: #b0b0b0; stroke-width: 0.8; stroke-linecap: square"/>
     </g>
     <g id="line2d_14">
      <defs>
       <path id="m54f79e62cc" d="M 0 0 
L -2 0 
" style="stroke: #000000; stroke-width: 0.6"/>
      </defs>
      <g>
       <use xlink:href="#m54f79e62cc" x="45" y="320.4" style="stroke: #000000; stroke-width: 0.6"/>
      </g>
     </g>
     <g id="text_8">
      <!-- $\mathdefault{2\times10^{-3}}$ -->
      <g transform="translate(-2.5 324.199219) scale(0.1 -0.1)">
       <defs>
        <path id="DejaVuSans-d7" d="M 4488 3438 
L 3059 2003 
L 4488 575 
L 4116 197 
L 2681 1631 
L 1247 197 
L 878 575 
L 2303 2003 
L 878 3438 
L 1247 3816 
L 2681 2381 
L 4116 3816 
L 4488 3438 
z
" transform="scale(0.015625)"/>
        <path id="DejaVuSans-2212" d="M 678 2272 
L 4684 2272 
L 4684 1741 
L 678 1741 
L 678 2272 
z
" transform="scale(0.015625)"/>
        <path id="DejaVuSans-33" d="M 2597 2516 
Q 3050 2419 3304 2112 
Q 3559 1806 3559 1356 
Q 3559 666 3084 287 
Q 2609 -91 1734 -91 
Q 1441 -91 1130 -33 
Q 819 25 488 141 
L 488 750 
Q 750 597 1062 519 
Q 1375 441 1716 441 
Q 2309 441 2620 675 
Q 2931 909 2931 1356 
Q 2931 1769 2642 2001 
Q 2353 2234 1838 2234 
L 1294 2234 
L 1294 2753 
L 1863 2753 
Q 2328 2753 2575 2939 
Q 2822 3125 2822 3475 
Q 2822 3834 2567 4026 
Q 2313 4219 1838 4219 
Q 1578 4219 1281 4162 
Q 984 4106 628 3988 
L 628 4550 
Q 988 4650 1302 4700 
Q 1616 4750 1894 4750 
Q 2613 4750 3031 4423 
Q 3450 4097 3450 3541 
Q 3450 3153 3228 2886 
Q 3006 2619 2597 2516 
z
" transform="scale(0.015625)"/>
       </defs>
       <use xlink:href="#DejaVuSans-32" transform="translate(0 0.765625)"/>
       <use xlink:href="#DejaVuSans-d7" transform="translate(83.105469 0.765625)"/>
       <use xlink:href="#DejaVuSans-31" transform="translate(186.376953 0.765625)"/>
       <use xlink:href="#DejaVuSans-30" transform="translate(250 0.765625)"/>
       <use xlink:href="#DejaVuSans-2212" transform="translate(314.580078 39.046875) scale(0.7)"/>
       <use xlink:href="#DejaVuSans-33" transform="translate(373.232422 39.046875) scale(0.7)"/>
      </g>
     </g>
    </g>
    <g id="ytick_2">
     <g id="line2d_15">
      <path d="M 45 197.737046 
L 324 197.737046 
" clip-path="url(#p4d786675ff)" style="fill: none; stroke: #b0b0b0; stroke-width: 0.8; stroke-linecap: square"/>
     </g>
     <g id="line2d_16">
      <g>
       <use xlink:href="#m54f79e62cc" x="45" y="197.737046" style="stroke: #000000; stroke-width: 0.6"/>
      </g>
     </g>
     <g id="text_9">
      <!-- $\mathdefault{3\times10^{-3}}$ -->
      <g transform="translate(-2.5 201.536265) scale(0.1 -0.1)">
       <use xlink:href="#DejaVuSans-33" transform="translate(0 0.765625)"/>
       <use xlink:href="#DejaVuSans-d7" transform="translate(83.105469 0.765625)"/>
       <use xlink:href="#DejaVuSans-31" transform="translate(186.376953 0.765625)"/>
       <use xlink:href="#DejaVuSans-30" transform="translate(250 0.765625)"/>
       <use xlink:href="#DejaVuSans-2212" transform="translate(314.580078 39.046875) scale(0.7)"/>
       <use xlink:href="#DejaVuSans-33" transform="translate(373.232422 39.046875) scale(0.7)"/>
      </g>
     </g>
    </g>
    <g id="ytick_3">
     <g id="line2d_17">
      <path d="M 45 110.706295 
L 324 110.706295 
" clip-path="url(#p4d786675ff)" style="fill: none; stroke: #b0b0b0; stroke-width: 0.8; stroke-linecap: square"/>
     </g>
     <g id="line2d_18">
      <g>
       <use xlink:href="#m54f79e62cc" x="45" y="110.706295" style="stroke: #000000; stroke-width: 0.6"/>
      </g>
     </g>
     <g id="text_10">
      <!-- $\mathdefault{4\times10^{-3}}$ -->
      <g transform="translate(-2.5 114.505514) scale(0.1 -0.1)">
       <defs>
        <path id="DejaVuSans-34" d="M 2419 4116 
L 825 1625 
L 2419 1625 
L 2419 4116 
z
M 2253 4666 
L 3047 4666 
L 3047 1625 
L 3713 1625 
L 3713 1100 
L 3047 1100 
L 3047 0 
L 2419 0 
L 2419 1100 
L 313 1100 
L 313 1709 
L 2253 4666 
z
" transform="scale(0.015625)"/>
       </defs>
       <use xlink:href="#DejaVuSans-34" transform="translate(0 0.765625)"/>
       <use xlink:href="#DejaVuSans-d7" transform="translate(83.105469 0.765625)"/>
       <use xlink:href="#DejaVuSans-31" transform="translate(186.376953 0.765625)"/>
       <use xlink:href="#DejaVuSans-30" transform="translate(250 0.765625)"/>
       <use xlink:href="#DejaVuSans-2212" transform="translate(314.580078 39.046875) scale(0.7)"/>
       <use xlink:href="#DejaVuSans-33" transform="translate(373.232422 39.046875) scale(0.7)"/>
      </g>
     </g>
    </g>
    <g id="ytick_4">
     <g id="line2d_19">
      <path d="M 45 43.2 
L 324 43.2 
" clip-path="url(#p4d786675ff)" style="fill: none; stroke: #b0b0b0; stroke-width: 0.8; stroke-linecap: square"/>
     </g>
     <g id="line2d_20">
      <g>
       <use xlink:href="#m54f79e62cc" x="45" y="43.2" style="stroke: #000000; stroke-width: 0.6"/>
      </g>
     </g>
     <g id="text_11">
      <!-- $\mathdefault{5\times10^{-3}}$ -->
      <g transform="translate(-2.5 46.999219) scale(0.1 -0.1)">
       <use xlink:href="#DejaVuSans-35" transform="translate(0 0.765625)"/>
       <use xlink:href="#DejaVuSans-d7" transform="translate(83.105469 0.765625)"/>
       <use xlink:href="#DejaVuSans-31" transform="translate(186.376953 0.765625)"/>
       <use xlink:href="#DejaVuSans-30" transform="translate(250 0.765625)"/>
       <use xlink:href="#DejaVuSans-2212" transform="translate(314.580078 39.046875) scale(0.7)"/>
       <use xlink:href="#DejaVuSans-33" transform="translate(373.232422 39.046875) scale(0.7)"/>
      </g>
     </g>
    </g>
    <g id="text_12">
     <!-- Density -->
     <g transform="translate(-8.579688 200.808594) rotate(-90) scale(0.1 -0.1)">
      <defs>
       <path id="DejaVuSans-44" d="M 1259 4147 
L 1259 519 
L 2022 519 
Q 2988 519 3436 956 
Q 3884 1394 3884 2338 
Q 3884 3275 3436 3711 
Q 2988 4147 2022 4147 
L 1259 4147 
z
M 628 4666 
L 1925 4666 
Q 3281 4666 3915 4102 
Q 4550 3538 4550 2338 
Q 4550 1131 3912 565 
Q 3275 0 1925 0 
L 628 0 
L 628 4666 
z
" transform="scale(0.015625)"/>
       <path id="DejaVuSans-6e" d="M 3513 2113 
L 3513 0 
L 2938 0 
L 2938 2094 
Q 2938 2591 2744 2837 
Q 2550 3084 2163 3084 
Q 1697 3084 1428 2787 
Q 1159 2491 1159 1978 
L 1159 0 
L 581 0 
L 581 3500 
L 1159 3500 
L 1159 2956 
Q 1366 3272 1645 3428 
Q 1925 3584 2291 3584 
Q 2894 3584 3203 3211 
Q 3513 2838 3513 2113 
z
" transform="scale(0.015625)"/>
       <path id="DejaVuSans-69" d="M 603 3500 
L 1178 3500 
L 1178 0 
L 603 0 
L 603 3500 
z
M 603 4863 
L 1178 4863 
L 1178 4134 
L 603 4134 
L 603 4863 
z
" transform="scale(0.015625)"/>
      </defs>
      <use xlink:href="#DejaVuSans-44"/>
      <use xlink:href="#DejaVuSans-65" x="77.001953"/>
      <use xlink:href="#DejaVuSans-6e" x="138.525391"/>
      <use xlink:href="#DejaVuSans-73" x="201.904297"/>
      <use xlink:href="#DejaVuSans-69" x="254.003906"/>
      <use xlink:href="#DejaVuSans-74" x="281.787109"/>
      <use xlink:href="#DejaVuSans-79" x="320.996094"/>
     </g>
    </g>
   </g>
   <g id="patch_3">
    <path d="M 45 320.4 
L 45 43.2 
" style="fill: none; stroke: #000000; stroke-width: 0.8; stroke-linejoin: miter; stroke-linecap: square"/>
   </g>
   <g id="patch_4">
    <path d="M 324 320.4 
L 324 43.2 
" style="fill: none; stroke: #000000; stroke-width: 0.8; stroke-linejoin: miter; stroke-linecap: square"/>
   </g>
   <g id="patch_5">
    <path d="M 45 320.4 
L 324 320.4 
" style="fill: none; stroke: #000000; stroke-width: 0.8; stroke-linejoin: miter; stroke-linecap: square"/>
   </g>
   <g id="patch_6">
    <path d="M 45 43.2 
L 324 43.2 
" style="fill: none; stroke: #000000; stroke-width: 0.8; stroke-linejoin: miter; stroke-linecap: square"/>
   </g>
  </g>
 </g>
 <defs>
  <clipPath id="p4d786675ff">
   <rect x="45" y="43.2" width="279" height="277.2"/>
  </clipPath>
 </defs>
</svg>
